<?xml version="1.0" encoding="utf-8"?>
<!-- Generator: Adobe Illustrator 20.1.0, SVG Export Plug-In . SVG Version: 6.00 Build 0)  -->
<svg
    width="24px"
    height="24px"
    viewBox="0 0 32 32"
    version="1.1"
    xmlns="http://www.w3.org/2000/svg"
    xmlns:xlink="http://www.w3.org/1999/xlink"
>
    <g
    id="logo-android"
    stroke="none"
    stroke-width="1"
    fill="none"
    fill-rule="evenodd"
    >
    <g
        id="android-logo"
        transform="translate(4.000000, 2.000000)"
        fill="#79C257"
        fill-rule="nonzero"
    >
        <path
        d="M1.75753069,9.05405776 C1.27592058,9.05405776 0.867292419,9.22200722 0.531393502,9.55790614 C0.195494585,9.89380505 0.0274945848,10.2968736 0.0274945848,10.7673141 L0.0274945848,17.9904043 C0.0274945848,18.4726209 0.195444043,18.8808953 0.531393502,19.2168448 C0.867292419,19.5527437 1.27592058,19.7207437 1.75753069,19.7207437 C2.238787,19.7207437 2.64493863,19.5527942 2.97563177,19.2168448 C3.30566787,18.8809458 3.47114079,18.4726209 3.47114079,17.9904043 L3.47114079,10.7673141 C3.47114079,10.2968231 3.30319134,9.89380505 2.96724188,9.55790614 C2.63129242,9.22200722 2.22797112,9.05405776 1.75753069,9.05405776 Z"
        id="Path"
        ></path>
        <path
        d="M15.6664549,2.56988448 L16.8591336,0.369711191 C16.9374224,0.224050542 16.909574,0.112353791 16.7753357,0.0338122744 C16.6296245,-0.0339133574 16.5176751,0.00040433213 16.4394368,0.13433935 L15.2300794,2.35210108 C14.1659278,1.88161011 13.0404188,1.64593502 11.8535523,1.64593502 C10.6664332,1.64593502 9.5408231,1.88166065 8.47707581,2.35210108 L7.26766787,0.13433935 C7.18907581,0.00040433213 7.07712635,-0.0336101083 6.93176895,0.0338122744 C6.79722744,0.112707581 6.76937906,0.224050542 6.84797112,0.369711191 L8.04070036,2.56988448 C6.83129242,3.1866426 5.8680722,4.04559567 5.1513935,5.14861372 C4.4347148,6.25223827 4.07622383,7.45825993 4.07622383,8.76880144 L19.614,8.76880144 C19.614,7.45856318 19.2554585,6.25249097 18.5388303,5.14861372 C17.8221011,4.04559567 16.8644404,3.1866426 15.6664549,2.56988448 Z M8.77092419,5.7700722 C8.64194224,5.8993574 8.4878917,5.96369675 8.3088231,5.96369675 C8.12940072,5.96369675 7.97848375,5.8993574 7.85536462,5.7700722 C7.73224549,5.6413935 7.67068592,5.48794946 7.67068592,5.30827437 C7.67068592,5.12920578 7.73224549,4.97545848 7.85536462,4.84647653 C7.97848375,4.71779783 8.12975451,4.65345848 8.3088231,4.65345848 C8.4878917,4.65345848 8.64194224,4.71779783 8.77092419,4.84647653 C8.89960289,4.97576173 8.96424549,5.12920578 8.96424549,5.30827437 C8.9638917,5.48764621 8.89929964,5.6413935 8.77092419,5.7700722 Z M15.851083,5.7700722 C15.7277112,5.8993574 15.5764404,5.96369675 15.3976751,5.96369675 C15.2182022,5.96369675 15.0642022,5.8993574 14.9354729,5.7700722 C14.8065415,5.6413935 14.7422022,5.48794946 14.7422022,5.30827437 C14.7422022,5.12920578 14.8065415,4.97545848 14.9354729,4.84647653 C15.0642022,4.71779783 15.2182022,4.65345848 15.3976751,4.65345848 C15.5767437,4.65345848 15.7276606,4.71779783 15.851083,4.84647653 C15.9743032,4.97576173 16.0357617,5.12920578 16.0357617,5.30827437 C16.0357617,5.48764621 15.9742527,5.6413935 15.851083,5.7700722 Z"
        id="Shape"
        ></path>
        <path
        d="M4.14293863,20.560491 C4.14293863,21.0761155 4.32200722,21.5125921 4.68019495,21.8707798 C5.03868592,22.2289675 5.47516245,22.4080361 5.99043321,22.4080361 L7.23355235,22.4080361 L7.25058484,26.2215957 C7.25058484,26.7031552 7.4185343,27.1120866 7.75443321,27.4480361 C8.09033213,27.7839856 8.49370397,27.951935 8.96384116,27.951935 C9.44514801,27.951935 9.85402888,27.7839856 10.1899783,27.4480361 C10.5259278,27.1120866 10.6938773,26.7032058 10.6938773,26.2215957 L10.6938773,22.4083899 L13.0119134,22.4083899 L13.0119134,26.2215957 C13.0119134,26.7031552 13.1798123,27.1120866 13.5157617,27.4480361 C13.8517112,27.7839856 14.2602383,27.951935 14.7418989,27.951935 C15.2232058,27.951935 15.6320866,27.7839856 15.9680361,27.4480361 C16.3039856,27.1120866 16.4718845,26.7032058 16.4718845,26.2215957 L16.4718845,22.4083899 L17.7317834,22.4083899 C18.2356318,22.4083899 18.6664982,22.2292708 19.025343,21.871083 C19.3834801,21.5128953 19.5626498,21.0764188 19.5626498,20.5608448 L19.5626498,9.37292419 L4.14293863,9.37292419 L4.14293863,20.560491 Z"
        id="Path"
        ></path>
        <path
        d="M21.948917,9.05405776 C21.478426,9.05405776 21.0754079,9.21953069 20.7394585,9.54956679 C20.4035596,9.88020939 20.2356101,10.286361 20.2356101,10.7673141 L20.2356101,17.9904043 C20.2356101,18.4726209 20.403509,18.8808953 20.7394585,19.2168448 C21.0754079,19.5527942 21.4787292,19.7207437 21.948917,19.7207437 C22.4302238,19.7207437 22.8391047,19.5527942 23.1750542,19.2168448 C23.5110036,18.8808953 23.6789025,18.4726209 23.6789025,17.9904043 L23.6789025,10.7673141 C23.6789025,10.2863105 23.5110036,9.88020939 23.1750542,9.54956679 C22.8391047,9.21953069 22.4302238,9.05405776 21.948917,9.05405776 Z"
        id="Path"
        ></path>
    </g>
    </g>
</svg>
