<?xml version="1.0" encoding="utf-8"?>
<!-- Generator: Adobe Illustrator 20.1.0, SVG Export Plug-In . SVG Version: 6.00 Build 0)  -->
<svg
    className="SVGInline-svg SVG-svg LangIcon-svg"
    viewBox="2 2 28 28"
    width="24px"
    height="24px"
    xmlns="http://www.w3.org/2000/svg"
>
    <g fill="#1384C8" fill-rule="evenodd">
    <path d="M11.68 13.26c1 3.07 1.38 8.54 4.31 8.54.23 0 .45-.03.68-.07-2.67-.62-2.98-6.03-4.6-8.83l-.39.36"></path>
    <path d="M12.06 12.9c1.63 2.8 1.94 8.21 4.6 8.83.22-.04.43-.1.64-.17-2.4-1.17-3.06-6.42-4.9-8.95l-.34.29"></path>
    <path d="M14.4 11.23a5.17 5.17 0 0 0-2.48.82c.17.17.33.35.48.56.62-.51 1.23-.9 1.84-1.12.23-.09.46-.15.69-.2a2.12 2.12 0 0 0-.53-.06m4.76 9.25c.25-.2.5-.4.74-.64-1.02-3.05-1.38-8.6-4.34-8.6-.2 0-.42.02-.63.06 2.69.67 3.03 6.52 4.23 9.18"></path>
    <path d="M14.93 11.3a2.12 2.12 0 0 0-.53-.07h1.17c-.22 0-.43.03-.64.07m4.18 9.83a4.37 4.37 0 0 1-.33-.36c-.5.35-1 .62-1.48.8a2.28 2.28 0 0 0 1.02.23c.55 0 .99-.07 1.36-.25-.2-.1-.4-.25-.57-.42m-4.87-9.64c2.4 1.26 2.62 6.96 4.54 9.28l.38-.29c-1.2-2.66-1.54-8.51-4.23-9.18-.23.04-.46.1-.69.19"></path>
    <path d="M12.4 12.6c1.84 2.54 2.5 7.79 4.9 8.96.49-.17.98-.44 1.48-.79-1.92-2.32-2.13-8.02-4.54-9.28-.61.23-1.22.6-1.84 1.12m-1.9.58c-.3.65-.59 1.51-.94 2.64.7-1 1.42-1.87 2.12-2.57-.1-.3-.2-.57-.31-.82-.3.22-.58.47-.87.75"></path>
    <path d="M11.62 12.26l-.25.18c.1.25.21.52.3.82l.4-.36a5.07 5.07 0 0 0-.45-.64"></path>
    <path d="M11.93 12.05l-.3.2c.15.2.3.42.43.65l.34-.3c-.15-.2-.3-.38-.47-.55M28.35 11c-1.36 5.25-4.2 9.47-6.59 10.54l-.13.05h-.02l-.04.02h-.01l-.06.03h-.03l-.03.02h-.02l-.03.02-.05.01h-.02l-.04.02h-.02l-.04.01-.04.01c.1.04.22.06.34.06 2.26 0 4.54-4.05 8.31-10.79h-1.48zm-19.29.45h.01l.04-.02h.01l.01-.01.04-.01.09-.04h.01l.04-.01h.02l.03-.02h.02l.12-.03h.02l.04-.01h.01l.04-.02.08-.01h.07l.04-.01h.02l.08-.02h-.24c-2.55 0-6.06 4.72-7.64 10.84h.3c.51-.9.96-1.76 1.38-2.56 1.1-4.33 3.36-7.29 5.36-8.07m1.44 1.74c.29-.28.58-.53.87-.75a4.1 4.1 0 0 0-.21-.4 4.9 4.9 0 0 0-.66 1.15"></path>
    <path d="M10.7 11.48c.17.14.32.34.46.57l.13-.15a2.55 2.55 0 0 0-.58-.42M3.7 19.52c2.32-4.47 3.42-7.3 5.36-8.07-2 .78-4.25 3.74-5.36 8.07"></path>
    <path d="M11.3 11.9l-.14.14.2.4.26-.18c-.1-.13-.21-.25-.33-.36M4.75 22.06h-.08l-.1.01c2.35-.06 3.42-1.24 3.96-2.95.4-1.3.73-2.38 1.03-3.3a46.74 46.74 0 0 0-2.97 4.9c-.48.88-1.21 1.26-1.84 1.34"></path>
    <path d="M4.75 22.06A2.43 2.43 0 0 0 6.6 20.7c1-1.85 1.98-3.5 2.97-4.88.35-1.13.65-1.99.94-2.64-1.96 1.86-3.93 4.97-5.75 8.87M3.7 19.52c-.42.8-.87 1.66-1.38 2.56h.89c.12-.9.28-1.75.49-2.56"></path>
    <path d="M9.82 11.25H9.8l-.04.01h-.02l-.03.01h-.02l-.07.02H9.6a.3.3 0 0 1-.04 0l-.02.01h-.03l-.02.01-.12.03h-.02l-.03.02H9.3l-.04.02h-.01l-.09.03-.04.01-.01.01-.04.01-.01.01c-1.95.77-3.05 3.6-5.37 8.07-.2.81-.37 1.66-.49 2.56h1.47l.04-.01h.05c1.81-3.9 3.78-7.01 5.74-8.88.22-.48.43-.86.66-1.14a2.17 2.17 0 0 0-.45-.56l-.03-.02-.03-.01-.03-.02h-.03l-.02-.02-.05-.02h-.03a.73.73 0 0 1-.03-.02l-.03-.01-.05-.02-.06-.02h-.02l-.05-.02h-.01a1.84 1.84 0 0 0-.13-.03h-.02l-.05-.01h-.01l-.07-.01h-.14m13.21 2.64c-.44 1.44-.8 2.62-1.12 3.6a38.91 38.91 0 0 0 3.58-6.27c-1.34.43-2.05 1.39-2.46 2.68m-1.08 7.54l-.19.09c2.39-1.07 5.23-5.29 6.6-10.54h-.28c-3.13 5.6-4.14 9.33-6.13 10.45m-1.56-.47c.52-.64.94-1.71 1.52-3.49a18.1 18.1 0 0 1-2 2.34l-.01.01c.15.44.3.83.49 1.14M20.39 20.98a2.13 2.13 0 0 1-.71.57 2.01 2.01 0 0 0 .85.24h.41l.04-.02h.08l.12-.03c-.31-.11-.57-.38-.8-.76M16 21.8a3.57 3.57 0 0 0 1.3-.24 2.29 2.29 0 0 0 1.02.24H16z"></path>
    <path d="M18.32 21.8c.55 0 .99-.07 1.36-.25a2.01 2.01 0 0 0 .85.24h.13-2.34zm2.34 0h.15l.04-.01h.1l.05-.02h.06l.12-.03c.1.04.22.06.34.06h-.86zm-.76-1.96a10.73 10.73 0 0 1-1.12.93c.1.13.22.25.33.36.18.17.37.31.57.42l.14-.07c.2-.12.4-.29.57-.5-.18-.32-.34-.7-.49-1.14M27.2 11h-1.38l-.23.01-.1.22a38.91 38.91 0 0 1-3.58 6.26c-.58 1.77-1 2.85-1.52 3.48.22.38.48.65.79.76h.04l.04-.02h.02l.04-.01h.02l.05-.02.03-.01.02-.01.03-.01.03-.01.06-.02h.01l.04-.02h.02l.12-.06h.01l.19-.1c1.99-1.1 3-4.85 6.13-10.44h-.88zm-17.3.25h.05l.08.01.06.02h.02l.13.03.06.02h.01a.93.93 0 0 1 .07.02l.05.02h.02l.04.02.02.01.05.02.03.01.03.02h.03l.03.02c.22.11.42.26.61.43a2 2 0 0 1 .22-.2 2.4 2.4 0 0 0-1.61-.45"></path>
    <path d="M11.3 11.9c.1.1.22.23.32.36.1-.08.2-.14.3-.2a3.2 3.2 0 0 0-.41-.36c-.08.06-.15.12-.22.2m-1.39-.65l.19-.01c.54 0 1 .17 1.42.46.44-.34.96-.47 1.7-.47H9.66l.24.02"></path>
    <path d="M13.2 11.23c-.73 0-1.25.13-1.7.47.15.1.3.22.43.35.6-.38 1.2-.64 1.8-.75.23-.04.45-.07.67-.07h-1.2zm8.7 6.27c.32-.98.68-2.16 1.13-3.6.4-1.28 1.12-2.25 2.46-2.67l.1-.22c-2.18.14-3.2 1.25-3.72 2.9-.9 2.87-1.44 4.74-1.97 5.92a17.5 17.5 0 0 0 2-2.34"></path>
    </g>
</svg>
