<?xml version="1.0" encoding="utf-8"?>
<!-- Generator: Adobe Illustrator 20.1.0, SVG Export Plug-In . SVG Version: 6.00 Build 0)  -->
<svg
    width="24px"
    height="24px"
    viewBox="0 0 32 32"
    version="1.1"
    xmlns="http://www.w3.org/2000/svg"
    xmlns:xlink="http://www.w3.org/1999/xlink"
>
    <g
    id="logo-ios"
    stroke="none"
    stroke-width="1"
    fill="none"
    fill-rule="evenodd"
    >
    <path
        d="M4.00791016,22 L4.00791016,13.2011719 L6.07480469,13.2011719 L6.07480469,22 L4.00791016,22 Z M5.02890625,11.8730469 C4.40634766,11.8730469 3.9,11.3666992 3.9,10.7524414 C3.9,10.1298828 4.40634766,9.63183594 5.02890625,9.63183594 C5.66806641,9.63183594 6.16611328,10.1298828 6.16611328,10.7524414 C6.16611328,11.3666992 5.66806641,11.8730469 5.02890625,11.8730469 Z M12.9564844,9.82275391 C16.4428125,9.82275391 18.6342187,12.2050781 18.6342187,16.0151367 C18.6342187,19.8251953 16.4428125,22.1992188 12.9564844,22.1992188 C9.46185547,22.1992188 7.27044922,19.8251953 7.27044922,16.0151367 C7.27044922,12.2050781 9.46185547,9.82275391 12.9564844,9.82275391 Z M12.9564844,11.6489258 C10.8148828,11.6489258 9.46185547,13.3422852 9.46185547,16.0151367 C9.46185547,18.6796875 10.8148828,20.3730469 12.9564844,20.3730469 C15.0897852,20.3730469 16.4511133,18.6796875 16.4511133,16.0151367 C16.4511133,13.3422852 15.0897852,11.6489258 12.9564844,11.6489258 Z M19.497832,18.6547852 L21.548125,18.6547852 C21.7058398,19.7587891 22.7849414,20.4228516 24.279082,20.4228516 C25.723418,20.4228516 26.7278125,19.7089844 26.7278125,18.7128906 C26.7278125,17.8496094 26.1301562,17.3183594 24.5696094,16.9946289 L23.2829883,16.7290039 C20.8840625,16.2392578 19.763457,15.1103516 19.763457,13.3588867 C19.763457,11.2504883 21.6145312,9.82275391 24.2126758,9.82275391 C26.860625,9.82275391 28.6120898,11.2670898 28.6618945,13.4086914 L26.6116016,13.4086914 C26.5119922,12.2797852 25.5657031,11.5991211 24.1960742,11.5991211 C22.8679492,11.5991211 21.9216601,12.2299805 21.9216601,13.234375 C21.9216601,14.0478516 22.5193164,14.5708008 24.013457,14.8862305 L25.3083789,15.1518555 C27.8318164,15.6748047 28.8860156,16.6875 28.8860156,18.4638672 C28.8860156,20.7548828 27.0847461,22.1992188 24.204375,22.1992188 C21.4319141,22.1992188 19.5974414,20.8461914 19.497832,18.6547852 Z"
        id="iOS"
        fill="#697386"
        fill-rule="nonzero"
    ></path>
    </g>
</svg>
