<?xml version="1.0" encoding="utf-8"?>
<!-- Generator: Adobe Illustrator 20.1.0, SVG Export Plug-In . SVG Version: 6.00 Build 0)  -->
<svg
    className="SVGInline-svg SVG-svg LangIcon-svg"
    width="24px"
    height="24px"
    viewBox="0 0 32 32"
    xmlns="http://www.w3.org/2000/svg"
>
    <g fill="#6181B6" fill-rule="evenodd">
    <path d="M9.762 14.509h-1.18l-.643 3.31h1.047c.695 0 1.213-.132 1.553-.393.34-.262.569-.698.687-1.311.115-.588.063-1.002-.155-1.244-.218-.241-.653-.362-1.308-.362z"></path>
    <path
        d="M16 8.86c-8.284 0-15 3.533-15 7.89s6.716 7.891 15 7.891c8.284 0 15-3.533 15-7.891s-6.716-7.89-15-7.89zm-4.075 9.314a3.034 3.034 0 0 1-1.146.688c-.42.135-.956.205-1.606.205H7.696l-.408 2.102H5.564l1.538-7.908h3.312c.996 0 1.723.261 2.18.785.458.523.595 1.253.412 2.19-.07.371-.198.729-.38 1.059a3.57 3.57 0 0 1-.702.879zm5.03.893l.679-3.498c.079-.398.049-.67-.085-.814-.134-.145-.42-.218-.859-.218h-1.365l-.88 4.532h-1.71l1.538-7.909h1.708l-.408 2.103h1.522c.959 0 1.619.167 1.983.5s.472.876.328 1.625l-.715 3.68h-1.736zm9.496-2.83a3.477 3.477 0 0 1-.381 1.058 3.57 3.57 0 0 1-.701.879 3.05 3.05 0 0 1-1.147.688c-.42.135-.956.205-1.607.205H21.14l-.409 2.103H19.01l1.537-7.908h3.312c.996 0 1.722.262 2.18.785.457.522.596 1.252.413 2.19z"
        fill-rule="nonzero"
    ></path>
    <path d="M23.207 14.509H22.03l-.645 3.31h1.047c.696 0 1.214-.132 1.553-.393.34-.262.568-.698.688-1.311.115-.588.062-1.002-.156-1.244-.217-.241-.655-.362-1.309-.362z"></path>
    </g>
</svg>
