<?xml version="1.0" encoding="UTF-8"?>
<svg width="448px" height="448px" viewBox="0 0 448 448" version="1.1" xmlns="http://www.w3.org/2000/svg" xmlns:xlink="http://www.w3.org/1999/xlink">
    <title>stackoverflow</title>
    <g id="stackoverflow" stroke="none" stroke-width="1" fill="none" fill-rule="evenodd">
        <g id="iconfinder_stackoverflow_4700664" fill-rule="nonzero">
            <polygon id="Path" fill="#6772E5" points="49.7777778 448 448 448 448 398.222222 448 49.7777778 448 0 0 0 0 49.7777778 0 448"></polygon>
            <path d="M261.797343,334.218817 L143.10538,334.273806 L143.095161,309.14702 L261.782014,309.086243 L261.797343,334.218817 L261.797343,334.218817 Z M342,191.914735 L321.695872,76 L296.717348,80.2963275 L317.018557,196.211062 L342,191.914735 L342,191.914735 Z M264.651322,276.868854 L146.465923,266.074495 L144.138944,291.100709 L262.326533,301.884939 L264.651322,276.868854 L264.651322,276.868854 Z M272.448306,244.079151 L157.832935,213.538907 L151.247615,237.80252 L265.871015,268.346382 L272.448306,244.079151 L272.448306,244.079151 Z M287.411624,215.337605 L185.180772,155.568878 L172.29626,177.205349 L274.532221,236.977695 L287.411624,215.337605 L287.411624,215.337605 Z M312.479197,197.738436 L291.536391,211.88998 L224.662036,114.689375 L245.607762,100.53349 L312.479197,197.738436 Z M281.954028,251.561909 L302.12823,251.561909 L302.12823,374 L106,374 L106,251.561909 L126.276392,251.561909 L126.276392,354.284503 L281.954028,354.284503 L281.954028,251.561909 Z" id="Shape" fill="#FFFFFF"></path>
        </g>
    </g>
</svg>