<?xml version="1.0" encoding="UTF-8"?>
<svg width="456px" height="456px" viewBox="0 0 456 456" version="1.1" xmlns="http://www.w3.org/2000/svg" xmlns:xlink="http://www.w3.org/1999/xlink">
    <title>youtube</title>
    <g id="youtube" stroke="none" stroke-width="1" fill="none" fill-rule="evenodd">
        <g fill-rule="nonzero">
            <rect id="Rectangle" fill="#6772E5" x="0" y="0" width="456" height="456"></rect>
            <path d="M373.702711,155.426068 C370.234639,142.256838 360.012952,131.968376 346.916416,128.401709 C323.278765,122 228.5,122 228.5,122 C228.5,122 133.721235,122 110.129217,128.401709 C97.0326807,131.968376 86.810994,142.256838 83.3429217,155.426068 C77,179.249573 77,229 77,229 C77,229 77,278.750427 83.3429217,302.573932 C86.810994,315.743162 97.0326807,326.031624 110.129217,329.598291 C133.766867,336 228.5,336 228.5,336 C228.5,336 323.278765,336 346.916416,329.598291 C360.012952,326.031624 370.234639,315.743162 373.702711,302.573932 C380,278.750427 380,229 380,229 C380,229 380,179.249573 373.702711,155.426068 Z M197.515512,274.132051 L197.515512,183.867949 L276.733584,229 L197.515512,274.132051 Z" id="Shape" fill="#FFFFFF"></path>
        </g>
    </g>
</svg>