<?xml version="1.0" encoding="UTF-8"?>
<svg width="202px" height="102px" viewBox="0 0 202 102" version="1.1" xmlns="http://www.w3.org/2000/svg" xmlns:xlink="http://www.w3.org/1999/xlink">
    <!-- Generator: Sketch 57.1 (83088) - https://sketch.com -->
    <title>CardB</title>
    <desc>Created with Sketch.</desc>
    <defs>
        <path d="M3.97308155,9.90981266 L0.219669914,6.19095308 C-0.0732233047,5.89561148 -0.0732233047,5.41676812 0.219669914,5.12142651 C0.512563133,4.8260849 0.987436867,4.8260849 1.28033009,5.12142651 L4.50050854,8.29009934 L10.7166538,2.09650621 C11.009547,1.8011646 11.4844207,1.8011646 11.777314,2.09650621 C12.0702072,2.39184781 12.0702072,2.87069117 11.777314,3.16603278 L5.02455644,9.90634609 C4.7336832,10.1965302 4.26583035,10.1980727 3.97308155,9.90981266 Z" id="path-1"></path>
    </defs>
    <g id="Recipes-v0" stroke="none" stroke-width="1" fill="none" fill-rule="evenodd">
        <g id="recipes-home-v0" transform="translate(-500.000000, -874.000000)">
            <g id="Group-10" transform="translate(450.000000, 798.000000)">
                <g id="CardB" transform="translate(50.000000, 76.000000)">
                    <rect id="Rectangle" fill="#FFFFFF" opacity="0.800000012" x="0" y="0" width="202" height="62" rx="4"></rect>
                    <rect id="Rectangle-Copy-3" fill="#BB5504" x="0" y="74" width="202" height="28" rx="4"></rect>
                    <text id="Pay-Now" opacity="0.699999988" font-family="Helvetica" font-size="16" font-weight="normal" fill="#F7FAFC">
                        <tspan x="73" y="94">Pay Now</tspan>
                    </text>
                    <g id="Icon/check" transform="translate(10.000000, 10.000000)">
                        <mask id="mask-2" fill="white">
                            <use xlink:href="#path-1"></use>
                        </mask>
                        <use id="Mask" fill="#000000" fill-rule="evenodd" xlink:href="#path-1"></use>
                        <g id="_Elements/Icon/Color/yellow" mask="url(#mask-2)" fill="#D97917" fill-rule="evenodd">
                            <rect id="Color" x="0" y="0" width="12" height="12"></rect>
                        </g>
                    </g>
                    <g id="Group-14" transform="translate(32.000000, 10.000000)">
                        <text id="····-4242" opacity="0.669999957" font-family="Helvetica" font-size="12" font-weight="normal" fill="#1A1F36">
                            <tspan x="31" y="12">···· 4242</tspan>
                        </text>
                        <g id="Visa-Copy" opacity="0.800000012" fill-rule="nonzero">
                            <rect id="Container" stroke="#D97917" stroke-width="0.5" x="0.25" y="0.25" width="23.5" height="15.5" rx="2"></rect>
                            <path d="M3.28773262,5.91443732 C2.76459089,5.62750595 2.1675389,5.39673777 1.5,5.23659312 L1.5280005,5.1118821 L4.26497922,5.1118821 C4.63596254,5.12488556 4.93699113,5.23650585 5.03494636,5.63071135 L5.62976697,8.46659052 L5.81198338,9.32072617 L7.47796639,5.1118821 L9.27678896,5.1118821 L6.60288111,11.2775284 L4.80396552,11.2775284 L3.28773262,5.91443732 L3.28773262,5.91443732 Z M10.5999752,11.2840738 L8.89882877,11.2840738 L9.96284763,5.1118821 L11.663901,5.1118821 L10.5999752,11.2840738 Z M16.7667821,5.26277458 L16.5354292,6.59558538 L16.381566,6.53004446 C16.0737466,6.40524617 15.6674138,6.28053516 15.1143808,6.29371316 C14.442741,6.29371316 14.1415263,6.56277129 14.1345494,6.82545859 C14.1345494,7.11441463 14.498928,7.3048411 15.0939153,7.58725177 C16.0740257,8.02718756 16.5286384,8.56556562 16.5218476,9.26818871 C16.5080799,10.5486366 15.3460128,11.376058 13.5610509,11.376058 C12.7978746,11.3694253 12.0627918,11.2180965 11.663808,11.0475679 L11.9018587,9.66204513 L12.1258627,9.76066195 C12.6788958,9.99070971 13.0428092,10.0889775 13.721984,10.0889775 C14.2117601,10.0889775 14.7368857,9.89837643 14.7435835,9.48488392 C14.7435835,9.21565125 14.5198586,9.01850486 13.8617074,8.7164581 C13.217789,8.42086943 12.3568435,7.92848346 12.3707973,7.04197926 C12.3780532,5.84042483 13.5610509,5 15.2409877,5 C15.8990458,5 16.4312413,5.13788902 16.7667821,5.26277458 Z M19.0277524,9.0974856 L20.441731,9.0974856 C20.3717762,8.78889347 20.049631,7.31147374 20.049631,7.31147374 L19.9307452,6.77964104 C19.8467437,7.00942698 19.6998574,7.38373457 19.7069273,7.37055657 C19.7069273,7.37055657 19.1678479,8.74290137 19.0277524,9.0974856 Z M21.1276036,5.1118821 L22.5,11.2839865 L20.9249023,11.2839865 C20.9249023,11.2839865 20.7707601,10.5748181 20.721922,10.3581228 L18.5377903,10.3581228 C18.4746264,10.5221933 18.1807607,11.2839865 18.1807607,11.2839865 L16.3957988,11.2839865 L18.9226343,5.62399144 C19.0977072,5.22341512 19.4059917,5.1118821 19.8117663,5.1118821 L21.1276036,5.1118821 L21.1276036,5.1118821 Z" id="Shape" fill="#D97917"></path>
                        </g>
                    </g>
                    <g id="Group-12" transform="translate(32.000000, 36.000000)">
                        <text id="····-1001" opacity="0.669999957" font-family="Helvetica" font-size="12" font-weight="normal" fill="#1A1F36">
                            <tspan x="31" y="13">···· 1001</tspan>
                        </text>
                        <g id="Amex" opacity="0.800000012">
                            <rect id="Rectangle" fill="#D97917" x="0" y="0" width="24" height="16" rx="2"></rect>
                            <polyline id="Fill-2" fill="#FFFFFE" points="13.7640663 13.3938564 13.7640663 7.69246409 23.9116022 7.70156906 23.9116022 9.27646409 22.7387403 10.5298564 23.9116022 11.7947403 23.9116022 13.4030497 22.0389834 13.4030497 21.0438011 12.304884 20.0556906 13.4072044 13.7640663 13.3938564"></polyline>
                            <polyline id="Fill-3" fill="#D97917" points="14.4418122 12.7687956 14.4418122 8.3199116 18.2140994 8.3199116 18.2140994 9.34479558 15.6632044 9.34479558 15.6632044 10.0404862 18.1532818 10.0404862 18.1532818 11.0483094 15.6632044 11.0483094 15.6632044 11.7316243 18.2140994 11.7316243 18.2140994 12.7687956 14.4418122 12.7687956"></polyline>
                            <polyline id="Fill-4" fill="#D97917" points="18.1952707 12.7687956 20.2826077 10.5417901 18.1951823 8.32 19.8108287 8.32 21.0863204 9.73003315 22.3654365 8.32 23.9116022 8.32 23.9116022 8.35500552 21.8687293 10.5417901 23.9116022 12.7056796 23.9116022 12.7687956 22.3498785 12.7687956 21.0517569 11.3446188 19.7669834 12.7687956 18.1952707 12.7687956"></polyline>
                            <polyline id="Fill-5" fill="#FFFFFE" points="14.2373481 2.6319558 16.6834033 2.6319558 17.5425414 4.58280663 17.5425414 2.6319558 20.5623867 2.6319558 21.0831381 4.09352486 21.6056575 2.6319558 23.9116022 2.6319558 23.9116022 8.33334807 11.7250829 8.33334807 14.2373481 2.6319558"></polyline>
                            <path d="M14.7004641,3.25135912 L12.726453,7.69653039 L14.0803536,7.69653039 L14.4527735,6.80636464 L16.4707182,6.80636464 L16.8428729,7.69653039 L18.230453,7.69653039 L16.264663,3.25135912 L14.7004641,3.25135912 Z M14.8700994,5.80879558 L15.4620994,4.39372376 L16.0536575,5.80879558 L14.8700994,5.80879558 L14.8700994,5.80879558 Z" id="Fill-6" fill="#D97917"></path>
                            <polyline id="Fill-7" fill="#D97917" points="18.2119779 7.69573481 18.2119779 3.25065193 20.1150939 3.25719337 21.0943646 5.98992265 22.08 3.25065193 23.9116022 3.25065193 23.9116022 7.69573481 22.7329945 7.70616575 22.7329945 4.65281768 21.6204199 7.69573481 20.5446188 7.69573481 19.4089724 4.64238674 19.4089724 7.69573481 18.2119779 7.69573481"></polyline>
                        </g>
                    </g>
                </g>
            </g>
        </g>
    </g>
</svg>