<?xml version="1.0" encoding="UTF-8"?>
<svg width="204px" height="154px" viewBox="0 0 204 154" version="1.1" xmlns="http://www.w3.org/2000/svg" xmlns:xlink="http://www.w3.org/1999/xlink">
    <!-- Generator: Sketch 57.1 (83088) - https://sketch.com -->
    <title>CardA</title>
    <desc>Created with Sketch.</desc>
    <g id="Recipes-v0" stroke="none" stroke-width="1" fill="none" fill-rule="evenodd">
        <g id="recipes-home-v0" transform="translate(-173.000000, -1209.000000)">
            <g id="Group-6-Copy" transform="translate(124.000000, 1164.000000)">
                <g id="CardA" transform="translate(50.000000, 45.000000)">
                    <rect id="Rectangle" fill="#FFFFFF" opacity="0.800000012" x="0" y="0" width="202" height="154" rx="4"></rect>
                    <path d="M0,55.5 L202,55.5" id="Line" stroke="#A3ACB9" opacity="0.300000012" stroke-linecap="square"></path>
                    <text id="$29.90" opacity="0.836844308" font-family="Helvetica" font-size="18" font-weight="normal" letter-spacing="-0.45" fill="#697386">
                        <tspan x="67" y="41">$29.90</tspan>
                    </text>
                    <path d="M87,9 L110,9 C111.104569,9 112,9.8954305 112,11 C112,12.1045695 111.104569,13 110,13 L87,13 C85.8954305,13 85,12.1045695 85,11 C85,9.8954305 85.8954305,9 87,9 Z" id="Rectangle" fill="#C1C9D2"></path>
                    <path d="M23.1277704,110 L178.87223,110 C180.655267,110 181.30184,110.185651 181.953691,110.534265 C182.605543,110.88288 183.11712,111.394457 183.465735,112.046309 C183.814349,112.69816 184,113.344733 184,115.12777 L184,132.87223 C184,134.655267 183.814349,135.30184 183.465735,135.953691 C183.11712,136.605543 182.605543,137.11712 181.953691,137.465735 C181.30184,137.814349 180.655267,138 178.87223,138 L23.1277704,138 C21.3447329,138 20.6981604,137.814349 20.0463086,137.465735 C19.3944567,137.11712 18.8828796,136.605543 18.5342654,135.953691 C18.1856512,135.30184 18,134.655267 18,132.87223 L18,115.12777 C18,113.344733 18.1856512,112.69816 18.5342654,112.046309 C18.8828796,111.394457 19.3944567,110.88288 20.0463086,110.534265 C20.6981604,110.185651 21.3447329,110 23.1277704,110 Z" id="Rectangle" fill="#8792A2"></path>
                    <path d="M23.1277704,70.5 C21.5776195,70.5 20.9405781,70.6230184 20.282108,70.975172 C19.7173904,71.2771863 19.2771863,71.7173904 18.975172,72.282108 C18.6230184,72.9405781 18.5,73.5776195 18.5,75.1277704 L18.5,92.8722296 C18.5,94.4223805 18.6230184,95.0594219 18.975172,95.717892 C19.2771863,96.2826096 19.7173904,96.7228137 20.282108,97.024828 C20.9405781,97.3769816 21.5776195,97.5 23.1277704,97.5 L178.87223,97.5 C180.42238,97.5 181.059422,97.3769816 181.717892,97.024828 C182.28261,96.7228137 182.722814,96.2826096 183.024828,95.717892 C183.376982,95.0594219 183.5,94.4223805 183.5,92.8722296 L183.5,75.1277704 C183.5,73.5776195 183.376982,72.9405781 183.024828,72.282108 C182.722814,71.7173904 182.28261,71.2771863 181.717892,70.975172 C181.059422,70.6230184 180.42238,70.5 178.87223,70.5 L23.1277704,70.5 Z" id="Rectangle-Copy-4" stroke-opacity="0.683621066" stroke="#C1C9D2" fill="#FFFFFF" opacity="0.800000012"></path>
                    <g id="Visa" opacity="0.5" transform="translate(154.000000, 76.000000)" fill-rule="nonzero">
                        <rect id="Container" stroke="#697386" stroke-width="0.5" x="0.25" y="0.25" width="23.5" height="15.5" rx="2"></rect>
                        <path d="M3.28773262,5.91443732 C2.76459089,5.62750595 2.1675389,5.39673777 1.5,5.23659312 L1.5280005,5.1118821 L4.26497922,5.1118821 C4.63596254,5.12488556 4.93699113,5.23650585 5.03494636,5.63071135 L5.62976697,8.46659052 L5.81198338,9.32072617 L7.47796639,5.1118821 L9.27678896,5.1118821 L6.60288111,11.2775284 L4.80396552,11.2775284 L3.28773262,5.91443732 L3.28773262,5.91443732 Z M10.5999752,11.2840738 L8.89882877,11.2840738 L9.96284763,5.1118821 L11.663901,5.1118821 L10.5999752,11.2840738 Z M16.7667821,5.26277458 L16.5354292,6.59558538 L16.381566,6.53004446 C16.0737466,6.40524617 15.6674138,6.28053516 15.1143808,6.29371316 C14.442741,6.29371316 14.1415263,6.56277129 14.1345494,6.82545859 C14.1345494,7.11441463 14.498928,7.3048411 15.0939153,7.58725177 C16.0740257,8.02718756 16.5286384,8.56556562 16.5218476,9.26818871 C16.5080799,10.5486366 15.3460128,11.376058 13.5610509,11.376058 C12.7978746,11.3694253 12.0627918,11.2180965 11.663808,11.0475679 L11.9018587,9.66204513 L12.1258627,9.76066195 C12.6788958,9.99070971 13.0428092,10.0889775 13.721984,10.0889775 C14.2117601,10.0889775 14.7368857,9.89837643 14.7435835,9.48488392 C14.7435835,9.21565125 14.5198586,9.01850486 13.8617074,8.7164581 C13.217789,8.42086943 12.3568435,7.92848346 12.3707973,7.04197926 C12.3780532,5.84042483 13.5610509,5 15.2409877,5 C15.8990458,5 16.4312413,5.13788902 16.7667821,5.26277458 Z M19.0277524,9.0974856 L20.441731,9.0974856 C20.3717762,8.78889347 20.049631,7.31147374 20.049631,7.31147374 L19.9307452,6.77964104 C19.8467437,7.00942698 19.6998574,7.38373457 19.7069273,7.37055657 C19.7069273,7.37055657 19.1678479,8.74290137 19.0277524,9.0974856 Z M21.1276036,5.1118821 L22.5,11.2839865 L20.9249023,11.2839865 C20.9249023,11.2839865 20.7707601,10.5748181 20.721922,10.3581228 L18.5377903,10.3581228 C18.4746264,10.5221933 18.1807607,11.2839865 18.1807607,11.2839865 L16.3957988,11.2839865 L18.9226343,5.62399144 C19.0977072,5.22341512 19.4059917,5.1118821 19.8117663,5.1118821 L21.1276036,5.1118821 L21.1276036,5.1118821 Z" id="Shape" fill="#3C4257"></path>
                    </g>
                    <text id="4242" opacity="0.669999957" font-family="Helvetica" font-size="12" font-weight="normal" fill="#1A1F36">
                        <tspan x="26" y="88">4242</tspan>
                    </text>
                    <text id="11/24" opacity="0.669999957" font-family="Helvetica" font-size="12" font-weight="normal" fill="#1A1F36">
                        <tspan x="66" y="88">11/24</tspan>
                    </text>
                    <text id="934" opacity="0.669999957" font-family="Helvetica" font-size="12" font-weight="normal" fill="#1A1F36">
                        <tspan x="106" y="88">934</tspan>
                    </text>
                    <text id="Pay-$29.90" opacity="0.699999988" font-family="Helvetica" font-size="16" font-weight="normal" fill="#F7FAFC">
                        <tspan x="64" y="130">Pay $29.90</tspan>
                    </text>
                </g>
            </g>
        </g>
    </g>
</svg>