<?xml version="1.0" encoding="UTF-8"?>
<svg width="240px" height="156px" viewBox="0 0 240 156" version="1.1" xmlns="http://www.w3.org/2000/svg" xmlns:xlink="http://www.w3.org/1999/xlink">
    <!-- Generator: Sketch 57.1 (83088) - https://sketch.com -->
    <title>CardA</title>
    <desc>Created with Sketch.</desc>
    <g id="Recipes-Framework" stroke="none" stroke-width="1" fill="none" fill-rule="evenodd">
        <g id="kit-v1" transform="translate(-83.000000, -200.000000)">
            <g id="Group-6" transform="translate(52.000000, 156.000000)">
                <g id="CardA" transform="translate(31.000000, 45.000000)">
                    <rect id="Rectangle" fill="#FFFFFF" opacity="0.800000012" x="0" y="0" width="240" height="154" rx="4"></rect>
                    <path d="M99,0 L99,154" id="Line" stroke="#A3ACB9" opacity="0.300000012" stroke-linecap="square"></path>
                    <text id="$29.90" opacity="0.836844308" font-family="Helvetica" font-size="18" font-weight="normal" letter-spacing="-0.45" fill="#983705">
                        <tspan x="14" y="49">$29.90</tspan>
                    </text>
                    <path d="M18,17 L41,17 C42.1045695,17 43,17.8954305 43,19 C43,20.1045695 42.1045695,21 41,21 L18,21 C16.8954305,21 16,20.1045695 16,19 C16,17.8954305 16.8954305,17 18,17 Z" id="Rectangle" fill="#EFC078"></path>
                    <g id="Group-21" transform="translate(112.000000, 109.000000)">
                        <path d="M3.58943928,-1.45017643e-16 L112.610561,-4.28866848e-15 C113.858687,2.49183989e-15 114.311288,0.129955856 114.767584,0.373985785 C115.22388,0.618015715 115.581984,0.976119719 115.826014,1.43241602 C116.070044,1.88871231 116.2,2.34131304 116.2,3.58943928 L116.2,16.0105607 C116.2,17.258687 116.070044,17.7112877 115.826014,18.167584 C115.581984,18.6238803 115.22388,18.9819843 114.767584,19.2260142 C114.311288,19.4700441 113.858687,19.6 112.610561,19.6 L3.58943928,19.6 C2.34131304,19.6 1.88871231,19.4700441 1.43241602,19.2260142 C0.976119719,18.9819843 0.618015715,18.6238803 0.373985785,18.167584 C0.129955856,17.7112877 1.98450861e-15,17.258687 -3.41550817e-15,16.0105607 L9.66784287e-17,3.58943928 C-5.61729512e-17,2.34131304 0.129955856,1.88871231 0.373985785,1.43241602 C0.618015715,0.976119719 0.976119719,0.618015715 1.43241602,0.373985785 C1.88871231,0.129955856 2.34131304,8.42594268e-17 3.58943928,-1.45017643e-16 Z" id="Rectangle" fill="#D97917"></path>
                        <text id="Pay-$29.90" opacity="0.699999988" font-family="Helvetica" font-size="11.2" font-weight="normal" fill="#F7FAFC">
                            <tspan x="32.2" y="14.5">Pay $29.90</tspan>
                        </text>
                    </g>
                    <g id="Group-20" transform="translate(112.000000, 83.000000)">
                        <path d="M3.58943928,0.35 C2.50433365,0.35 2.05840464,0.436112865 1.59747562,0.682620405 C1.20217328,0.894030405 0.894030405,1.20217328 0.682620405,1.59747562 C0.436112865,2.05840464 0.35,2.50433365 0.35,3.58943928 L0.35,16.0105607 C0.35,17.0956663 0.436112865,17.5415954 0.682620405,18.0025244 C0.894030405,18.3978267 1.20217328,18.7059696 1.59747562,18.9173796 C2.05840464,19.1638871 2.50433365,19.25 3.58943928,19.25 L112.610561,19.25 C113.695666,19.25 114.141595,19.1638871 114.602524,18.9173796 C114.997827,18.7059696 115.30597,18.3978267 115.51738,18.0025244 C115.763887,17.5415954 115.85,17.0956663 115.85,16.0105607 L115.85,3.58943928 C115.85,2.50433365 115.763887,2.05840464 115.51738,1.59747562 C115.30597,1.20217328 114.997827,0.894030405 114.602524,0.682620405 C114.141595,0.436112865 113.695666,0.35 112.610561,0.35 L3.58943928,0.35 Z" id="Rectangle-Copy-4" stroke-opacity="0.266253278" stroke="#983705" stroke-width="0.7" fill="#FFFFFF" opacity="0.800000012"></path>
                        <g id="Visa" opacity="0.5" transform="translate(95.200000, 4.200000)" fill-rule="nonzero">
                            <rect id="Container" stroke="#BB5504" stroke-width="0.5" fill="#EBF1F8" x="0.25" y="0.25" width="16.3" height="10.7" rx="1.4"></rect>
                            <path d="M2.30141283,4.14010612 C1.93521362,3.93925417 1.51727723,3.77771644 1.05,3.66561518 L1.06960035,3.57831747 L2.98548546,3.57831747 C3.24517378,3.58741989 3.45589379,3.66555409 3.52446245,3.94149794 L3.94083688,5.92661337 L4.06838837,6.52450832 L5.23457647,3.57831747 L6.49375227,3.57831747 L4.62201678,7.89426989 L3.36277586,7.89426989 L2.30141283,4.14010612 L2.30141283,4.14010612 Z M7.41998264,7.89885165 L6.22918014,7.89885165 L6.97399334,3.57831747 L8.16473072,3.57831747 L7.41998264,7.89885165 Z M11.7367475,3.6839422 L11.5748004,4.61690977 L11.4670962,4.57103112 C11.2516226,4.48367232 10.9671897,4.39637461 10.5800665,4.40559921 C10.1099187,4.40559921 9.89906842,4.5939399 9.89418461,4.77782101 C9.89418461,4.98009024 10.1492496,5.11338877 10.5657407,5.31107624 C11.251818,5.61903129 11.5700469,5.99589594 11.5652933,6.4877321 C11.5556559,7.38404562 10.7422089,7.96324058 9.49273564,7.96324058 C8.95851222,7.95859774 8.44395427,7.85266755 8.1646656,7.73329755 L8.33130111,6.76343159 L8.48810389,6.83246337 C8.87522703,6.9934968 9.12996642,7.06228422 9.6053888,7.06228422 C9.94823208,7.06228422 10.31582,6.9288635 10.3205084,6.63941874 C10.3205084,6.45095588 10.163901,6.31295341 9.70319518,6.10152067 C9.25245231,5.8946086 8.64979047,5.54993842 8.65955809,4.92938548 C8.66463725,4.08829738 9.49273564,3.5 10.6686914,3.5 C11.1293321,3.5 11.5018689,3.59652231 11.7367475,3.6839422 Z M13.3194267,6.36823992 L14.3092117,6.36823992 C14.2602434,6.15222543 14.0347417,5.11803162 14.0347417,5.11803162 L13.9515216,4.74574873 C13.8927206,4.90659888 13.7899002,5.1686142 13.7948491,5.1593896 C13.7948491,5.1593896 13.4174936,6.12003096 13.3194267,6.36823992 Z M14.7893225,3.57831747 L15.75,7.89879056 L14.6474316,7.89879056 C14.6474316,7.89879056 14.539532,7.40237264 14.5053454,7.25068599 L12.9764532,7.25068599 C12.9322384,7.36553533 12.7265325,7.89879056 12.7265325,7.89879056 L11.4770592,7.89879056 L13.245844,3.93679401 C13.368395,3.65639058 13.5841942,3.57831747 13.8682364,3.57831747 L14.7893225,3.57831747 L14.7893225,3.57831747 Z" id="Shape" fill="#983705"></path>
                        </g>
                        <text id="4242" opacity="0.669999957" font-family="Helvetica" font-size="8.4" font-weight="normal" fill="#1A1F36">
                            <tspan x="5.6" y="12.9">4242</tspan>
                        </text>
                        <text id="11/24" opacity="0.669999957" font-family="Helvetica" font-size="8.4" font-weight="normal" fill="#1A1F36">
                            <tspan x="33.6" y="12.9">11/24</tspan>
                        </text>
                        <text id="934" opacity="0.669999957" font-family="Helvetica" font-size="8.4" font-weight="normal" fill="#1A1F36">
                            <tspan x="61.6" y="12.9">934</tspan>
                        </text>
                    </g>
                    <g id="Group-19" transform="translate(112.000000, 57.000000)">
                        <path d="M3.58943928,0.35 C2.50433365,0.35 2.05840464,0.436112865 1.59747562,0.682620405 C1.20217328,0.894030405 0.894030405,1.20217328 0.682620405,1.59747562 C0.436112865,2.05840464 0.35,2.50433365 0.35,3.58943928 L0.35,16.0105607 C0.35,17.0956663 0.436112865,17.5415954 0.682620405,18.0025244 C0.894030405,18.3978267 1.20217328,18.7059696 1.59747562,18.9173796 C2.05840464,19.1638871 2.50433365,19.25 3.58943928,19.25 L112.610561,19.25 C113.695666,19.25 114.141595,19.1638871 114.602524,18.9173796 C114.997827,18.7059696 115.30597,18.3978267 115.51738,18.0025244 C115.763887,17.5415954 115.85,17.0956663 115.85,16.0105607 L115.85,3.58943928 C115.85,2.50433365 115.763887,2.05840464 115.51738,1.59747562 C115.30597,1.20217328 114.997827,0.894030405 114.602524,0.682620405 C114.141595,0.436112865 113.695666,0.35 112.610561,0.35 L3.58943928,0.35 Z" id="Rectangle-Copy-8" stroke-opacity="0.266253278" stroke="#983705" stroke-width="0.7" fill="#FFFFFF" opacity="0.800000012"></path>
                        <text id="Ryo-Lu" opacity="0.669999957" font-family="Helvetica" font-size="8.4" font-weight="normal" fill="#1A1F36">
                            <tspan x="5.6" y="13.6">Ryo Lu</tspan>
                        </text>
                    </g>
                    <g id="Group-19-Copy" transform="translate(112.000000, 31.000000)">
                        <path d="M3.58943928,0.35 C2.50433365,0.35 2.05840464,0.436112865 1.59747562,0.682620405 C1.20217328,0.894030405 0.894030405,1.20217328 0.682620405,1.59747562 C0.436112865,2.05840464 0.35,2.50433365 0.35,3.58943928 L0.35,16.0105607 C0.35,17.0956663 0.436112865,17.5415954 0.682620405,18.0025244 C0.894030405,18.3978267 1.20217328,18.7059696 1.59747562,18.9173796 C2.05840464,19.1638871 2.50433365,19.25 3.58943928,19.25 L112.610561,19.25 C113.695666,19.25 114.141595,19.1638871 114.602524,18.9173796 C114.997827,18.7059696 115.30597,18.3978267 115.51738,18.0025244 C115.763887,17.5415954 115.85,17.0956663 115.85,16.0105607 L115.85,3.58943928 C115.85,2.50433365 115.763887,2.05840464 115.51738,1.59747562 C115.30597,1.20217328 114.997827,0.894030405 114.602524,0.682620405 C114.141595,0.436112865 113.695666,0.35 112.610561,0.35 L3.58943928,0.35 Z" id="Rectangle-Copy-8" stroke-opacity="0.266253278" stroke="#983705" stroke-width="0.7" fill="#FFFFFF" opacity="0.800000012"></path>
                        <text id="me@ryo.lu" opacity="0.669999957" font-family="Helvetica" font-size="8.4" font-weight="normal" fill="#1A1F36">
                            <tspan x="5.6" y="13.6">me@ryo.lu</tspan>
                        </text>
                    </g>
                </g>
            </g>
        </g>
    </g>
</svg>