<?xml version="1.0" encoding="UTF-8"?>
<svg width="2500px" height="650px" viewBox="0 0 2500 650" version="1.1" xmlns="http://www.w3.org/2000/svg" xmlns:xlink="http://www.w3.org/1999/xlink">
    <!-- Generator: Sketch 55 (78076) - https://sketchapp.com -->
    <title>ticket-image</title>
    <desc>Created with Sketch.</desc>
    <defs>
        <rect id="path-1" x="0" y="0" width="2500" height="650"></rect>
    </defs>
    <g id="ticket-image" stroke="none" stroke-width="1" fill="none" fill-rule="evenodd">
        <g id="pricing-bg-copy">
            <mask id="mask-2" fill="white">
                <use xlink:href="#path-1"></use>
            </mask>
            <use id="Mask" fill="#FFFFFF" xlink:href="#path-1"></use>
            <polygon id="Fill-1" fill="#F6F9FC" mask="url(#mask-2)" points="202.196265 521.332168 202.196265 1952.60699 2296.25413 1507.27972 2296.25413 76"></polygon>
            <polygon id="Fill-1-Copy" fill="#F6F9FC" mask="url(#mask-2)" points="0 564.318953 0 2273.05257 2500 1741.39668 2500 32.6572266"></polygon>
            <path d="M612.741617,238.765519 L612.741617,334.354309 L910.091692,271.118997 L910.091692,175.530207 L612.741617,238.765519 Z" id="Stripe-Copy-10" stroke="#CFD7DF" stroke-width="2.5" mask="url(#mask-2)"></path>
            <g id="Group" mask="url(#mask-2)" fill="#00CCB8">
                <g transform="translate(1893.939261, 78.233643)" id="Stripe-Copy-6">
                    <path d="M399.8001,44.8275783 L399.8001,47.0433566 L287.446615,55.0666574 L287.21036,55.0380612 L287.120216,55.0089671 L226.334464,35.2881255 L230.660423,34.3681548 L287.597083,52.8405998 L399.8001,44.8275783 Z M399.8001,52.0143795 L399.8001,54.2327855 L290.235975,63.7455512 L289.984423,63.7158184 L289.895538,63.6861655 L212.292561,38.2743164 L216.597507,37.3588144 L290.367311,61.5157573 L399.8001,52.0143795 Z M399.8001,59.1473537 L399.8001,61.3688239 L293.028593,72.4240271 L292.773689,72.3975453 L292.669642,72.364168 L204.901843,43.3777406 L107.593193,78.8144176 L107.426347,78.7838353 L107.304588,78.761504 L60.6618653,70.5205309 L66.4263213,69.2946453 L107.397235,76.5337306 L204.868053,41.0375852 L205.075118,41.1070626 L205.229662,41.1589245 L293.137645,70.1905698 L399.8001,59.1473537 Z M399.8001,0.857017722 L399.8001,3.06700773 L377.904922,3.05472154 L388.2696,0.850539595 L399.8001,0.857017722 Z M399.8001,8.26893037 L399.8001,10.4743227 L340.364112,11.0382567 L351.226925,8.72813999 L399.8001,8.26893037 Z M399.8001,15.6579113 L399.8001,17.8513919 L298.703333,19.8979563 L310.166756,17.4601123 L399.8001,15.6579113 Z M399.8001,22.9993155 L399.8001,25.2107064 L279.083468,29.0310029 L278.876937,29.0027237 L269.586038,26.0901231 L273.987198,25.1541598 L279.280122,26.8134839 L399.8001,22.9993155 Z M399.8001,30.3155187 L399.8001,32.5279185 L281.870468,37.7088257 L281.653946,37.6800979 L281.572563,37.6542341 L254.951008,29.2024501 L259.324116,28.2724525 L282.053032,35.488445 L399.8001,30.3155187 Z M399.8001,37.5934648 L399.8001,39.8063659 L284.657947,46.3880578 L284.432907,46.359654 L284.346972,46.3322951 L240.543684,32.2663524 L244.891839,31.3416614 L284.825454,44.1648256 L399.8001,37.5934648 Z M399.8001,72.9481606 L399.682322,72.8835115 L293.144923,81.0370148 L292.95508,81.0224278 L292.876136,81.0039418 L204.506049,59.557575 L104.304708,84.9317291 L104.057849,84.9437825 L103.965257,84.9297417 L38.4097636,75.252726 L44.6097939,73.93421 L104.069247,82.7110637 L204.493025,57.2811989 L204.642693,57.3170877 L204.760459,57.3453294 L293.227015,78.8154216 L399.8001,70.6587622 L399.8001,71.8309003 L399.730542,71.8158694 L399.8001,71.8540491 L399.8001,72.9481606 Z M399.8001,84.6472214 L399.345506,84.423971 L293.262817,89.6509108 L293.135283,89.6441171 L293.086862,89.6365176 L204.110529,75.7484715 L100.855678,91.1021569 L100.688674,91.104406 L100.628759,91.0971303 L12.0779195,80.8525308 L18.8521395,79.4119059 L100.73828,88.8859208 L204.024813,73.5274978 L204.212935,73.5281764 L293.317026,87.4354377 L399.8001,82.1884177 L399.8001,84.6472214 Z M399.8001,96.3093498 L399.008708,95.965346 L293.345189,98.2640117 L203.728174,91.9460543 L97.3598515,97.2661033 L0,89.4309781 L0,87.2154715 L97.3931079,95.0608165 L203.75042,89.7402986 L293.398482,96.0576238 L399.307448,93.7478638 L399.570555,93.7997271 L399.6669,93.8417206 L399.8001,93.8996204 L399.8001,96.3093498 Z M0,99.5310213 L0,97.3188722 L94.0627651,101.222091 L203.358494,105.95053 L293.496892,104.670798 L359.727659,105.065047 L349.618556,107.214877 L293.50491,106.880725 L203.325991,108.158924 L93.9695998,103.430011 L0,99.5310213 Z M0,109.772618 L0,107.563571 L90.7258805,107.389271 L202.980184,122.154336 L293.59455,113.289258 L317.27884,114.092333 L308.345479,115.992127 L293.664955,115.493046 L203.01428,124.371126 L202.877277,124.369439 L202.817281,124.362044 L90.5843044,109.590098 L0,109.772618 Z M0,120.181522 L0,117.977793 L87.2827768,113.545735 L87.4387909,113.557439 L87.5072785,113.571401 L202.596051,138.351785 L206.639378,137.621236 L197.616894,139.539983 L87.1849786,115.763106 L0,120.181522 Z M0,130.802385 L0,128.581534 L83.8842829,119.706125 L84.1265862,119.728156 L84.2177134,119.755028 L170.722038,145.259519 L166.182657,146.224877 L83.8040711,121.937599 L1.42108547e-14,130.802385 Z M0,141.665974 L0,139.425557 L80.6445349,125.839368 L80.8021098,125.898646 L80.9190904,125.942661 L146.800472,150.346747 L142.759524,151.206107 L80.4285661,128.116469 L0,141.665974 Z M0,152.826002 L0,150.564186 L77.2721423,131.979094 L77.4665022,132.066221 L77.6114669,132.131214 L127.881264,154.37016 L124.193192,155.154476 L77.0604721,134.302623 L0,152.826002 Z M0,164.084281 L0,161.868169 L0.726764216,161.815543 L73.889771,138.112379 L112.222585,157.700179 L108.793282,158.429464 L73.6998311,140.496924 L1.22490955,163.977494 L1.0775525,164.006261 L-2.22044605e-16,164.084281 Z M0,171.383517 L0,169.174707 L2.0665846,168.955412 L79.9428273,148.045163 L103.357883,159.585372 L99.8658877,160.327989 L79.7117274,150.394835 L2.4690799,171.121359 L0,171.383517 Z M0,178.790454 L0,176.562546 L3.4164408,176.078071 L85.9910708,157.975733 L86.1839015,158.067186 L86.3311129,158.137003 L93.7237977,161.634184 L90.1589169,162.392301 L85.7277145,160.296081 L3.80761931,178.251086 L-1.33226763e-15,178.790454 Z M89.8116082,64.3214638 L107.554269,66.7195246 L157.612286,49.902779 L176.52644,45.8804414 L107.767587,68.9797943 L107.622,68.9595286 L107.514111,68.9445056 L83.3988661,65.6852157 L89.8116082,64.3214638 Z M107.69864,66.7390374 L107.554269,66.7195246 L107.416165,66.7659201 L107.69864,66.7390374 Z M107.675751,67.9972981 L107.759732,67.9690853 L107.794168,67.7214541 L107.683823,67.7060941 L107.648278,67.70129 L107.509237,67.7480005 L107.588968,67.9855686 L107.675751,67.9972981 Z M290.300665,62.7666193 L290.37951,62.5299643 L290.287397,62.4992443 L290.256365,62.4890828 L290.127959,62.5002315 L290.149552,62.7491749 L290.300665,62.7666193 Z M107.509811,77.8229641 L107.608905,77.7868769 L107.651493,77.5542994 L107.525796,77.5312594 L107.484145,77.5239003 L107.325257,77.5817624 L107.406357,77.8046849 L107.509811,77.8229641 Z M205.090158,42.2869315 L205.022618,42.1012861 L204.881845,42.0547941 L204.740143,42.1063975 L204.677865,42.2921921 L204.835226,42.3449921 L204.885309,42.3615318 L205.090158,42.2869315 Z M293.079708,71.4419154 L293.154887,71.2071494 L293.056056,71.1754694 L293.030787,71.167124 L292.899983,71.1806676 L292.925275,71.4251859 L293.079708,71.4419154 Z M279.043968,27.7816278 L279.250499,27.809907 L279.149625,27.7782841 L279.043968,27.7816278 Z M281.95358,36.7363347 L282.032183,36.4887568 L281.950624,36.4628368 L281.926449,36.4551618 L281.815661,36.460029 L281.827051,36.7195662 L281.95358,36.7363347 Z M284.733827,45.413434 L284.811722,45.1684967 L284.727285,45.1416167 L284.70201,45.1335006 L284.586683,45.1400929 L284.601327,45.3965405 L284.733827,45.413434 Z M287.515979,54.0901696 L287.593922,53.8484255 L287.504686,53.8196255 L287.478678,53.8111877 L287.357667,53.8198293 L287.375734,54.0730855 L287.515979,54.0901696 Z M204.49966,58.2697757 L204.408976,58.2927398 L204.351502,58.532663 L204.467604,58.560503 L204.500974,58.5686015 L204.650372,58.53077 L204.589887,58.2916728 L204.49966,58.2697757 Z M293.380191,87.4452964 L293.317026,87.4354377 L293.253175,87.438584 L293.380191,87.4452964 Z M399.606349,83.1596037 L399.504373,83.1646283 L399.397099,83.3792843 L399.508403,83.4349643 L399.544198,83.4525426 L399.707197,83.4445107 L399.695323,83.2032985 L399.606349,83.1596037 Z M293.201363,88.4024239 L293.215115,88.6818115 L293.285574,88.685535 L293.328896,88.4092176 L293.279961,88.4015376 L293.265418,88.3992677 L293.201363,88.4024239 Z M100.67201,89.8657378 L100.712239,90.1365541 L100.806116,90.1350317 L100.839013,89.8634887 L100.775685,89.8558087 L100.754931,89.8534077 L100.67201,89.8657378 Z M204.208482,74.7639169 L204.02036,74.7632383 L204.114369,74.7779111 L204.208482,74.7639169 Z M399.168733,94.7225519 L399.071567,94.9457036 L399.168479,94.9879436 L399.197492,95.0005553 L399.334675,94.9975669 L399.329371,94.7541363 L399.168733,94.7225519 Z M203.051158,122.163671 L202.980184,122.154336 L202.908902,122.16131 L203.051158,122.163671 Z M202.892562,123.127072 L202.919611,123.403527 L202.995684,123.40479 L203.029565,123.12876 L202.974873,123.12204 L202.961695,123.120306 L202.892562,123.127072 Z M87.2446254,114.513809 L87.1900904,114.782423 L87.2514997,114.794903 L87.2666203,114.798159 L87.3461045,114.794128 L87.3322441,114.520894 L87.2446254,114.513809 Z M83.8444489,120.685887 L83.7733716,120.927162 L83.864526,120.954042 L83.8923385,120.962242 L84.0156748,120.949194 L83.9892346,120.699049 L83.8444489,120.685887 Z M80.5497939,126.828449 L80.4461143,126.845916 L80.3623997,127.068673 L80.4823398,127.113793 L80.5203745,127.127882 L80.685983,127.099983 L80.6463,126.864198 L80.5497939,126.828449 Z M77.179347,132.988461 L77.0383101,133.022374 L76.9556505,133.206953 L77.1034166,133.273193 L77.150387,133.293973 L77.3570881,133.244275 L77.3094527,133.046021 L77.179347,132.988461 Z M0.840013745,162.788289 L0.987370799,162.759522 L0.911952044,162.764982 L0.840013745,162.788289 Z M74.0285053,139.381334 L73.5519223,139.343337 L73.7823487,139.461084 L74.0285053,139.381334 Z M80.0395981,149.313411 L79.6016291,149.270436 L79.8125005,149.374365 L80.0395981,149.313411 Z M85.8765605,158.98381 L85.7349032,159.014862 L85.6487459,159.196709 L85.796512,159.266789 L85.8416484,159.288141 L86.0500297,159.242463 L86.0068854,159.045462 L85.8765605,158.98381 Z"></path>
                </g>
            </g>
            <g id="Group-16" mask="url(#mask-2)">
                <g transform="translate(113.068466, 411.323242)">
                    <path d="M0.99950025,94.6160575 L4.26482108,95.2761159 L79.6050807,93.8333205 L163.929889,103.038297 L288.653039,64.9964651 L288.881783,65.1189356 L289.061708,65.2152743 L355.901032,101.379421 L352.567062,102.088433 L288.416831,67.3788698 L164.263772,105.245751 L164.014633,105.26931 L163.915968,105.258664 L79.5061769,96.0366374 L4.133943,97.4891174 L3.99722259,97.4766562 L3.94638306,97.466294 L0.99950025,96.8705895 L0.99950025,94.6160575 Z M0.99950025,103.49079 L4.56887546,104.109642 L82.2735943,96.4063431 L82.4278569,96.4102121 L82.482046,96.418354 L164.668145,108.292708 L289.507241,72.7042992 L289.732371,72.8281824 L289.903323,72.922257 L345.906081,103.504976 L342.588523,104.210497 L289.242345,75.0780537 L164.947387,110.510655 L164.687866,110.528296 L164.586179,110.513761 L86.8147341,99.2776941 L165.407073,113.548371 L290.356291,80.4156121 L290.574833,80.5348766 L290.746003,80.6282951 L336.052817,105.600399 L332.749856,106.302816 L290.067945,82.7771808 L165.631905,115.774422 L165.364589,115.785997 L165.255725,115.766996 L92.5193481,102.559788 L166.147537,118.805312 L291.20841,88.1251615 L291.422103,88.2432485 L291.588683,88.3353042 L326.338248,107.666327 L323.050643,108.365478 L290.894508,90.4772125 L166.171763,121.075143 L166.027649,121.042258 L165.922644,121.018281 L98.1781664,106.071603 L166.888574,124.062604 L292.062177,95.8334502 L292.271945,95.9521279 L292.431361,96.042323 L316.762379,109.702758 L313.48859,110.398971 L291.72011,98.1771884 L166.848967,126.336842 L166.701561,126.298097 L166.588902,126.268485 L103.724711,109.807853 L167.630168,129.319997 L292.913774,103.543957 L293.118407,103.660769 L293.273085,103.749068 L307.322893,111.710186 L304.064778,112.403066 L292.545719,105.875866 L167.52279,131.598331 L167.370391,131.551707 L167.254618,131.516287 L93.4707426,108.987493 L6.28197755,141.65006 L6.04977813,141.689607 L5.9601632,141.687717 L0.99950025,141.595327 L0.99950025,139.384829 L5.79039209,139.473801 L92.6932651,106.919331 L90.6825953,106.392849 L5.86104079,132.824097 L5.63462623,132.851044 L5.54664809,132.845304 L0.99950025,132.550247 L0.99950025,130.336539 L5.48395593,130.626599 L90.0465487,104.277499 L87.8924374,103.802231 L5.43616596,123.996781 L5.21630068,124.010617 L5.13873292,124.001668 L0.99950025,123.565555 L0.99950025,121.343025 L5.17860832,121.783299 L87.4375003,101.637044 L85.0973044,101.21212 L5.00618936,115.164897 L4.8117947,115.168037 L4.73682066,115.157459 L0.99950025,114.629327 L0.99950025,112.397547 L4.87353468,112.945005 L84.9090701,99.0023724 L82.3000279,98.6254298 L4.57200766,106.329613 L4.40029092,106.322868 L4.33947555,106.31196 L0.99950025,105.732903 L0.99950025,103.49079 Z M394.623001,89.5142476 L389.226426,90.852784 L389.016389,90.7427101 L388.856408,90.6588667 L285.111684,36.5799031 L161.519884,84.1828969 L161.302473,84.2245859 L161.220178,84.2255033 L69.8185419,85.7072582 L71.3591889,86.099288 L161.723337,87.2728379 L286.1039,41.8670496 L286.349989,41.9983628 L286.533884,42.0965014 L386.741789,94.820738 L383.361468,95.5396067 L285.938214,44.2801904 L162.207051,89.4483316 L161.98614,89.4861564 L161.896544,89.4851807 L71.7574885,88.3142802 L74.0933824,88.6810717 L162.457923,92.5264715 L286.951556,49.5770631 L287.191456,49.704574 L287.3755,49.8023964 L376.316322,97.0378474 L372.952101,97.7532922 L286.763765,51.980418 L162.893082,94.7145813 L162.656264,94.7478391 L162.572088,94.7433303 L73.8744371,90.8771709 L3.21160488,79.7845611 L0.99950025,79.2278649 L0.99950025,78.7090915 L5.07190829,77.8430417 L70.0514819,88.0463962 L18.6249241,74.9608188 L23.5062731,73.9227373 L64.1974694,84.2769321 L30.9536631,72.3389542 L35.0578885,71.466138 L58.4313512,79.8586868 L38.9078012,70.6474046 L42.4709049,69.8896649 L65.8833068,80.9316873 L160.255321,76.7653177 L284.397087,26.4506806 L284.651899,26.5818995 L284.848279,26.6830285 L389.042994,80.4911103 L394.623001,78.9816627 L394.623001,81.2712492 L388.791176,82.8488441 L388.575483,82.73718 L388.411007,82.6520301 L284.285608,28.8797432 L160.83301,78.9165611 L160.620237,78.9619094 L160.54348,78.9645617 L67.3948961,83.0771653 L68.6203491,83.5171803 L160.989298,82.0193848 L285.249143,34.1596155 L285.498978,34.2895948 L285.691323,34.3896646 L389.507172,88.506017 L394.623001,87.2371578 L394.623001,89.5142476 Z M394.623001,53.4888306 L394.623001,55.758154 L386.510353,57.6378657 L386.311382,57.5408501 L386.160859,57.4674563 L299.227482,15.287082 L302.747074,14.5385956 L386.77327,55.3075243 L394.623001,53.4888306 Z M394.623001,66.2122034 L394.623001,68.4916468 L387.652157,70.2435292 L387.445111,70.1399543 L387.285439,70.0600782 L285.196298,18.9004432 L164.515271,66.1271566 L164.301597,66.1699431 L164.214131,66.1718868 L69.4624667,68.1101268 L69.1973239,68.056982 L63.3145611,65.4569937 L67.0038489,64.6724193 L69.7682306,65.8937155 L163.972801,63.9663431 L275.434361,20.3469947 L287.777677,17.72203 L387.908346,67.8997246 L394.623001,66.2122034 Z M394.623001,5.33175768 L381.95184,7.21516551 L381.792087,7.14898489 L381.669184,7.09806971 L366.77012,0.923272745 L370.583547,0.112298617 L382.232209,4.94004512 L394.623001,3.098252 L394.623001,5.33175768 Z M394.623001,17.8581452 L383.092222,19.8196277 L382.92255,19.7465206 L382.789924,19.6893741 L348.464487,4.81620074 L352.192439,4.02340383 L383.367675,17.5316336 L394.623001,15.6169309 L394.623001,17.8581452 Z M394.623001,30.4393796 L384.233161,32.4249355 L384.054398,32.3454456 L383.913058,32.2825858 L331.195183,8.48874001 L334.846525,7.71223523 L384.502944,30.1239718 L394.623001,28.1898553 L394.623001,30.4393796 Z M394.623001,43.0731549 L385.372457,45.0307465 L385.183847,44.9432675 L385.036723,44.8750249 L314.821328,11.9708503 L318.404206,11.2089054 L385.638142,42.7163143 L394.623001,40.8148454 L394.623001,43.0731549 Z M0.99950025,88.0318267 L0.99950025,85.778397 L3.95004643,86.4516563 L76.8488952,91.2549618 L163.194157,97.7823138 L287.804403,57.2864397 L288.039359,57.412729 L288.219133,57.5093585 L366.036178,99.224052 L362.688348,99.9360111 L287.591311,59.6787646 L163.579043,99.9807728 L163.341997,100.009789 L163.243999,100.002849 L76.6916416,93.459911 L3.63199024,88.6321945 L0.99950025,88.0318267 Z M0.99950025,149.472749 L0.99950025,147.259744 L5.33650211,147.023597 L96.1534412,119.745196 L96.3080792,119.777121 L96.432992,119.802923 L174.199928,136.391312 L245.491837,124.859354 L201.51029,134.212595 L174.259823,138.620294 L174.029871,138.614568 L96.2493998,122.023643 L5.79138369,149.19455 L5.64295553,149.220166 L5.58813652,149.222902 L0.99950025,149.472749 Z M0.99950025,157.25168 L0.99950025,155.033348 L4.87894755,154.571643 L98.8054243,132.848763 L99.028678,132.838188 L99.1129023,132.849427 L166.661376,141.623664 L160.154544,143.007425 L99.0261329,135.066389 L5.2584878,156.744887 L0.99950025,157.25168 Z M0.99950025,162.710619 L4.43693859,162.103826 L101.608513,145.907666 L101.744584,145.900064 L101.798544,145.902956 L137.478668,147.829741 L129.187972,149.592864 L101.799834,148.115801 L4.81028925,164.282383 L0.99950025,164.955062 L0.99950025,162.710619 Z M0.99950025,170.324245 L3.99843985,169.640587 L65.8028137,163.072532 L44.975018,167.50183 L4.36063232,171.816099 L0.99950025,172.582635 L0.99950025,170.324245 Z M131.077235,51.0463912 L167.68926,51.1686774 L215.894669,33.0088746 L230.286915,29.9481787 L168.19576,53.3389686 L167.975634,53.3790573 L167.885279,53.3790539 L120.845053,53.222396 L131.077235,51.0463912 Z M166.888574,124.062604 L167.035718,124.101132 L166.740196,124.096066 L166.888574,124.062604 Z M5.28684426,121.794702 L5.17860832,121.783299 L5.0728952,121.809189 L5.28684426,121.794702 Z M5.32940849,123.026087 L5.35896769,122.768794 L5.27548943,122.759194 L5.24703438,122.756196 L5.13910241,122.782629 L5.20079941,123.034796 L5.32940849,123.026087 Z M88.0220733,102.780781 L87.8787506,102.815883 L87.8418936,102.807751 L87.7334678,102.782791 L87.7891611,102.540618 L87.8776735,102.51894 L87.9625933,102.537676 L88.0220733,102.780781 Z M166.162544,120.088659 L166.249914,120.067225 L166.30546,119.823552 L166.196075,119.798592 L166.160784,119.790806 L166.017785,119.825888 L166.077592,120.069915 L166.162544,120.088659 Z M291.268844,89.3973639 L291.22851,89.2327875 L291.073144,89.1463582 L290.900106,89.1888092 L290.818053,89.3374422 L290.983091,89.4286422 L291.031522,89.4555842 L291.268844,89.3973639 Z M5.69923042,131.859951 L5.71593449,131.603694 L5.62765863,131.597934 L5.60019251,131.596155 L5.48951993,131.630642 L5.56585682,131.875863 L5.69923042,131.859951 Z M90.8313463,105.34218 L90.7627246,105.12173 L90.6527331,105.09293 L90.5463499,105.12608 L90.4879104,105.35021 L90.6203242,105.38477 L90.6607169,105.395347 L90.8313463,105.34218 Z M166.866545,125.348934 L166.956096,125.328739 L167.019015,125.089121 L166.905791,125.059361 L166.871539,125.050393 L166.722931,125.083905 L166.777378,125.325587 L166.866545,125.348934 Z M292.101819,97.1058722 L292.063713,96.9367362 L291.913269,96.8522702 L291.741267,96.8910584 L291.656967,97.0402108 L291.818166,97.1314108 L291.867001,97.1588284 L292.101819,97.1058722 Z M6.07072461,140.694152 L6.07607494,140.439884 L5.98492052,140.437964 L5.95600098,140.437426 L5.84387552,140.47943 L5.9330733,140.717771 L6.07072461,140.694152 Z M93.6376538,107.900303 L93.5663505,107.709771 L93.4298032,107.668078 L93.2967992,107.717904 L93.237752,107.913219 L93.3931943,107.960259 L93.439699,107.974458 L93.6376538,107.900303 Z M167.569988,130.608534 L167.664604,130.589068 L167.735732,130.356344 L167.61963,130.320824 L167.58329,130.309728 L167.427234,130.341835 L167.476162,130.579886 L167.569988,130.608534 Z M292.934661,104.815815 L292.898344,104.639123 L292.753388,104.556984 L292.587909,104.59103 L292.49926,104.746482 L292.655662,104.835762 L292.704155,104.86324 L292.934661,104.815815 Z M4.94908365,114.194047 L4.98626227,113.930285 L4.91141969,113.919725 L4.88883322,113.916533 L4.79186761,113.933426 L4.83753694,114.195837 L4.94908365,114.194047 Z M85.2105637,100.218657 L85.165933,99.9622054 L85.0415682,99.9617615 L84.9972675,100.218834 L85.0807458,100.233234 L85.1033393,100.237336 L85.2105637,100.218657 Z M165.537325,114.794542 L165.579135,114.554566 L165.474547,114.536326 L165.444696,114.530905 L165.31182,114.566141 L165.374047,114.801043 L165.537325,114.794542 Z M290.43574,81.6877026 L290.393883,81.5296959 L290.232061,81.4405019 L290.055591,81.4872974 L289.976567,81.6322461 L290.145443,81.7244061 L290.194778,81.7515985 L290.43574,81.6877026 Z M382.392,5.00626989 L382.232209,4.94004512 L382.061129,4.96547484 L382.392,5.00626989 Z M382.270054,5.9940738 L382.147235,5.9431938 L382.110312,5.92789149 L381.939272,5.95331442 L381.973817,6.18595827 L382.07365,6.22733357 L382.180064,6.211516 L382.270054,5.9940738 Z M383.416724,18.598458 L383.28527,18.541818 L383.247206,18.5253249 L383.064928,18.5563318 L383.102776,18.7790438 L383.211479,18.8261451 L383.327191,18.8064607 L383.416724,18.598458 Z M384.308919,30.1610534 L384.683004,30.2052394 L384.502944,30.1239718 L384.308919,30.1610534 Z M384.561818,31.2031811 L384.423647,31.1417411 L384.383477,31.1236106 L384.190905,31.1604121 L384.231441,31.3727347 L384.349313,31.4259348 L384.4734,31.4022197 L384.561818,31.2031811 Z M385.709311,43.8091992 L385.564423,43.7419992 L385.52101,43.7216547 L385.317309,43.7647617 L385.359905,43.96625 L385.487219,44.0259124 L385.622127,43.9973618 L385.709311,43.8091992 Z M386.858717,56.4171846 L386.707113,56.3432646 L386.659588,56.3202055 L386.444111,56.3701319 L386.487635,56.5581678 L386.625194,56.6249104 L386.77437,56.5903482 L386.858717,56.4171846 Z M167.755508,52.1691461 L167.8464,52.4106611 L167.975634,52.3873483 L167.975634,52.1290573 L167.887358,52.1290573 L167.862147,52.1289734 L167.755508,52.1691461 Z M69.8949011,65.9496782 L69.7682306,65.8937155 L69.629789,65.896548 L69.8949011,65.9496782 Z M388.003849,69.0219204 L387.844568,68.9422404 L387.796858,68.9183315 L387.572292,68.9747684 L387.616688,69.1515985 L387.763222,69.2250301 L387.922328,69.1850439 L388.003849,69.0219204 Z M164.060166,64.963038 L164.154685,65.2048095 L164.279607,65.1799097 L164.27384,64.9202516 L164.187483,64.9221716 L164.163331,64.9226657 L164.060166,64.963038 Z M69.4369276,66.8603879 L69.7020704,66.9135327 L69.5753869,66.8575556 L69.4369276,66.8603879 Z M160.362705,76.7605769 L160.255321,76.7653177 L160.155698,76.8056952 L160.362705,76.7605769 Z M65.8309826,81.9684836 L65.7244758,81.9176036 L65.6897679,81.901232 L65.5342771,81.908097 L65.5451281,82.1541139 L65.6298926,82.1940914 L65.7253244,82.1898783 L65.8309826,81.9684836 Z M160.585749,77.9727523 L160.576681,77.7126693 L160.494162,77.7155493 L160.465573,77.7168115 L160.363908,77.7580176 L160.461794,77.9997689 L160.585749,77.9727523 Z M284.60056,27.7168835 L284.558998,27.6142343 L284.348551,27.5055555 L284.131459,27.5935453 L284.080131,27.6933192 L284.275873,27.7941192 L284.33485,27.8245759 L284.60056,27.7168835 Z M388.90091,81.8244284 L389.071394,81.7783109 L389.14965,81.6269987 L388.984613,81.5415587 L388.933875,81.5153569 L388.699519,81.5787538 L388.744015,81.7434045 L388.90091,81.8244284 Z M389.716751,88.6152646 L389.507172,88.506017 L389.277796,88.562908 L389.716751,88.6152646 Z M389.596108,89.6354206 L389.434909,89.5509406 L389.385894,89.5253908 L389.155933,89.5824292 L389.198608,89.7546555 L389.349044,89.8330737 L389.514055,89.7921468 L389.596108,89.6354206 Z M285.18897,35.2107076 L284.978007,35.2919628 L284.922575,35.3986158 L285.114479,35.4984558 L285.172346,35.5286201 L285.435205,35.4273777 L285.392697,35.3169044 L285.18897,35.2107076 Z M161.071024,83.0163538 L161.164344,83.2588818 L161.29135,83.2342008 L161.288436,82.9746648 L161.203038,82.9756248 L161.175615,82.9760694 L161.071024,83.0163538 Z M68.3471626,84.4809474 L68.3513548,84.7398012 L68.4776192,84.7607301 L68.5630381,84.5157402 L68.4805193,84.4869402 L68.4587906,84.4791377 L68.3471626,84.4809474 Z M161.837919,87.274326 L161.723337,87.2728379 L161.615688,87.312136 L161.837919,87.274326 Z M71.4309829,86.1175565 L71.3591889,86.099288 L71.2851155,86.098326 L71.4309829,86.1175565 Z M286.029894,42.9161163 L285.819901,42.9927743 L285.762047,43.1013039 L285.949154,43.2011439 L286.00863,43.232437 L286.270141,43.1369707 L286.227519,43.020097 L286.029894,42.9161163 Z M161.778809,88.2740551 L161.867216,88.5164772 L161.996914,88.4944106 L161.999719,88.2362303 L161.911443,88.2352703 L161.88596,88.2349392 L161.778809,88.2740551 Z M286.869878,50.6215847 L286.667458,50.6914177 L286.605305,50.8084687 L286.789533,50.9063887 L286.845233,50.9359702 L287.102019,50.8473808 L287.058774,50.7219035 L286.869878,50.6215847 Z M162.485808,93.5328614 L162.568804,93.7736773 L162.70914,93.753276 L162.722626,93.4996036 L162.632432,93.4948036 L162.600193,93.4933998 L162.485808,93.5328614 Z M287.711897,58.3252861 L287.514985,58.3892796 L287.448078,58.5138816 L287.628467,58.6108416 L287.683125,58.6401413 L287.936703,58.5577335 L287.892704,58.4222112 L287.711897,58.3252861 Z M163.193071,98.7919179 L163.271102,99.0322655 L163.412277,99.0153307 L163.430117,98.7629019 L163.335124,98.7561819 L163.309089,98.7542137 L163.193071,98.7919179 Z M164.057255,103.052201 L163.929889,103.038297 L163.807335,103.075677 L164.057255,103.052201 Z M288.551912,66.0308769 L288.363236,66.0884236 L288.292297,66.2210511 L288.469809,66.3160911 L288.520699,66.3436261 L288.769204,66.2678295 L288.725647,66.1248788 L288.551912,66.0308769 Z M163.899454,104.050076 L163.972574,104.290051 L164.121697,104.276043 L164.148593,104.026516 L164.050722,104.015956 L164.021707,104.012788 L163.899454,104.050076 Z M164.800247,108.311794 L164.668145,108.292708 L164.539782,108.329301 L164.800247,108.311794 Z M4.65258842,104.124156 L4.56887546,104.109642 L4.48432888,104.118023 L4.65258842,104.124156 Z M289.391934,73.735661 L289.204067,73.7892162 L289.130274,73.9234523 L289.302987,74.0184923 L289.355667,74.0472603 L289.602503,73.9768939 L289.559929,73.8274035 L289.391934,73.735661 Z M82.2832546,97.3747093 L82.242524,97.6463826 L82.3000952,97.6550226 L82.3198582,97.657878 L82.3967866,97.6502516 L82.3696891,97.376641 L82.2832546,97.3747093 Z M4.44883792,105.085702 L4.475714,105.357128 L4.57254109,105.360657 L4.62055466,105.092447 L4.5562668,105.080927 L4.53471348,105.07719 L4.44883792,105.085702 Z M96.1967891,120.734328 L96.1049709,120.761907 L96.055591,121.001329 L96.1764905,121.026289 L96.2097786,121.03339 L96.3614567,120.987831 L96.2914476,120.754519 L96.1967891,120.734328 Z M98.8976976,133.821032 L98.8635559,134.077223 L98.9499127,134.088743 L98.9763859,134.092182 L99.0868096,134.066648 L99.0285777,133.81461 L98.8976976,133.821032 Z M101.692659,146.869812 L101.677749,147.148274 L101.731482,147.151154 L101.746177,147.151947 L101.81382,147.140673 L101.76802,146.865614 L101.692659,146.869812 Z" id="pattern" fill="#E6EBF1"></path>
                    <path d="M0.819902549,141.591982 L0.819902549,139.381494 L5.79039209,139.473801 L77.9685279,112.435329 L92.5378296,109.33698 L6.28197755,141.65006 L6.04977813,141.689607 L5.9601632,141.687717 L0.819902549,141.591982 Z M394.623001,53.4888306 L394.623001,55.758154 L386.510353,57.6378657 L386.311382,57.5408501 L386.160859,57.4674563 L371.010129,50.1162696 L374.530787,49.3675564 L386.77327,55.3075243 L394.623001,53.4888306 Z M394.623001,66.2122034 L394.623001,68.4916468 L387.652157,70.2435292 L387.445111,70.1399543 L387.285439,70.0600782 L354.495733,53.628268 L357.959442,52.8916658 L387.908346,67.8997246 L394.623001,66.2122034 Z M394.623001,78.9816627 L394.623001,81.2712492 L388.791176,82.8488441 L388.575483,82.73718 L388.411007,82.6520301 L338.709723,56.9853656 L342.121262,56.2598581 L389.042994,80.4911103 L394.623001,78.9816627 Z M394.623001,87.2371578 L394.623001,89.5142476 L389.226426,90.852784 L389.016389,90.7427101 L388.856408,90.6588667 L328.445069,59.1682762 L331.840814,58.4461274 L389.507172,88.506017 L394.623001,87.2371578 Z M0.819902549,132.538594 L0.819902549,130.324923 L5.48395593,130.626599 L33.5492037,121.881668 L56.9406581,116.907175 L5.86104079,132.824097 L5.63462623,132.851044 L5.54664809,132.845304 L0.819902549,132.538594 Z M0.819902549,149.482528 L0.819902549,147.269523 L5.33650211,147.023597 L96.1534412,119.745196 L96.3080792,119.777121 L96.432992,119.802923 L174.199928,136.391312 L245.491837,124.859354 L201.51029,134.212595 L174.259823,138.620294 L174.029871,138.614568 L96.2493998,122.023643 L5.79138369,149.19455 L5.64295553,149.220166 L5.58813652,149.222902 L0.819902549,149.482528 Z M0.819902549,157.273051 L0.819902549,155.054722 L4.87894755,154.571643 L98.8054243,132.848763 L99.028678,132.838188 L99.1129023,132.849427 L166.661376,141.623664 L160.154544,143.007425 L99.0261329,135.066389 L5.2584878,156.744887 L0.819902549,157.273051 Z M0.819902549,162.742322 L4.43693859,162.103826 L101.608513,145.907666 L101.744584,145.900064 L101.798544,145.902956 L137.478668,147.829741 L129.187972,149.592864 L101.799834,148.115801 L4.81028925,164.282383 L0.819902549,164.986764 L0.819902549,162.742322 Z M0.819902549,170.365187 L3.99843985,169.640587 L65.8028137,163.072532 L44.975018,167.50183 L4.36063232,171.816099 L0.819902549,172.623594 L0.819902549,170.365187 Z M136.32548,100.024974 L163.929889,103.038297 L260.129242,73.6965139 L285.147077,68.37615 L164.263772,105.245751 L164.014633,105.26931 L163.915968,105.258664 L129.431301,101.491109 L136.32548,100.024974 Z M292.150876,66.8867024 L355.901032,101.379421 L352.567062,102.088433 L288.817406,67.5956074 L292.150876,66.8867024 Z M124.641823,102.509653 L164.668145,108.292708 L289.507241,72.7042992 L289.732371,72.8281824 L289.903323,72.922257 L345.906081,103.504976 L342.588523,104.210497 L289.242345,75.0780537 L164.947387,110.510655 L164.687866,110.528296 L164.586179,110.513761 L118.388986,103.839399 L124.641823,102.509653 Z M115.417458,104.471333 L165.407073,113.548371 L290.356291,80.4156121 L290.574833,80.5348766 L290.746003,80.6282951 L336.052817,105.600399 L332.749856,106.302816 L290.067945,82.7771808 L165.631905,115.774422 L165.364589,115.785997 L165.255725,115.766996 L109.719875,105.682997 L115.417458,104.471333 Z M108.169095,106.01279 L166.147537,118.805312 L291.20841,88.1251615 L291.422103,88.2432485 L291.588683,88.3353042 L326.338248,107.666327 L323.050643,108.365478 L290.894508,90.4772125 L166.171763,121.075143 L166.027649,121.042258 L165.922644,121.018281 L102.946007,107.123547 L108.169095,106.01279 Z M102.531975,107.211596 L166.888574,124.062604 L292.062177,95.8334502 L292.271945,95.9521279 L292.431361,96.042323 L316.762379,109.702758 L313.48859,110.398971 L291.72011,98.1771884 L166.848967,126.336842 L166.701561,126.298097 L166.588902,126.268485 L103.724711,109.807853 L167.630168,129.319997 L292.913774,103.543957 L293.118407,103.660769 L293.273085,103.749068 L307.322893,111.710186 L304.064778,112.403066 L292.545719,105.875866 L167.52279,131.598331 L167.370391,131.551707 L167.254618,131.516287 L93.7624253,109.076554 L102.531975,107.211596 Z M311.711389,62.726908 L376.316322,97.0378474 L372.952101,97.7532922 L308.346399,63.4425163 L311.711389,62.726908 Z M165.459065,93.8293426 L162.893082,94.7145813 L162.656264,94.7478391 L162.572088,94.7433303 L161.401224,94.6922945 L165.459065,93.8293426 Z M321.704875,60.6016648 L386.741789,94.820738 L383.361468,95.5396067 L318.324843,61.3204721 L321.704875,60.6016648 Z M362.688348,99.9360111 L298.513219,65.5336684 L301.860314,64.8218656 L366.036178,99.224052 L362.688348,99.9360111 Z M214.785933,83.3393508 L163.579043,99.9807728 L163.341997,100.009789 L163.243999,100.002849 L143.461567,98.5073931 L151.15182,96.8719619 L163.194157,97.7823138 L194.100392,87.7383966 L214.785933,83.3393508 Z M166.888574,124.062604 L166.740196,124.096066 L167.035718,124.101132 L166.888574,124.062604 Z M166.162544,120.088659 L166.249914,120.067225 L166.30546,119.823552 L166.196075,119.798592 L166.160784,119.790806 L166.017785,119.825888 L166.077592,120.069915 L166.162544,120.088659 Z M291.268844,89.3973639 L291.22851,89.2327875 L291.073144,89.1463582 L290.900106,89.1888092 L290.818053,89.3374422 L290.983091,89.4286422 L291.031522,89.4555842 L291.268844,89.3973639 Z M5.69923042,131.859951 L5.71593449,131.603694 L5.62765863,131.597934 L5.60019251,131.596155 L5.48951993,131.630642 L5.56585682,131.875863 L5.69923042,131.859951 Z M166.866545,125.348934 L166.956096,125.328739 L167.019015,125.089121 L166.905791,125.059361 L166.871539,125.050393 L166.722931,125.083905 L166.777378,125.325587 L166.866545,125.348934 Z M292.101819,97.1058722 L292.063713,96.9367362 L291.913269,96.8522702 L291.741267,96.8910584 L291.656967,97.0402108 L291.818166,97.1314108 L291.867001,97.1588284 L292.101819,97.1058722 Z M6.07072461,140.694152 L6.07607494,140.439884 L5.98492052,140.437964 L5.95600098,140.437426 L5.84387552,140.47943 L5.9330733,140.717771 L6.07072461,140.694152 Z M167.569988,130.608534 L167.664604,130.589068 L167.735732,130.356344 L167.61963,130.320824 L167.58329,130.309728 L167.427234,130.341835 L167.476162,130.579886 L167.569988,130.608534 Z M292.934661,104.815815 L292.898344,104.639123 L292.753388,104.556984 L292.587909,104.59103 L292.49926,104.746482 L292.655662,104.835762 L292.704155,104.86324 L292.934661,104.815815 Z M165.537325,114.794542 L165.579135,114.554566 L165.474547,114.536326 L165.444696,114.530905 L165.31182,114.566141 L165.374047,114.801043 L165.537325,114.794542 Z M290.43574,81.6877026 L290.393883,81.5296959 L290.232061,81.4405019 L290.055591,81.4872974 L289.976567,81.6322461 L290.145443,81.7244061 L290.194778,81.7515985 L290.43574,81.6877026 Z M386.858717,56.4171846 L386.707113,56.3432646 L386.659588,56.3202055 L386.444111,56.3701319 L386.487635,56.5581678 L386.625194,56.6249104 L386.77437,56.5903482 L386.858717,56.4171846 Z M388.003849,69.0219204 L387.844568,68.9422404 L387.796858,68.9183315 L387.572292,68.9747684 L387.616688,69.1515985 L387.763222,69.2250301 L387.922328,69.1850439 L388.003849,69.0219204 Z M388.90091,81.8244284 L389.071394,81.7783109 L389.14965,81.6269987 L388.984613,81.5415587 L388.933875,81.5153569 L388.699519,81.5787538 L388.744015,81.7434045 L388.90091,81.8244284 Z M389.716751,88.6152646 L389.507172,88.506017 L389.277796,88.562908 L389.716751,88.6152646 Z M389.596108,89.6354206 L389.434909,89.5509406 L389.385894,89.5253908 L389.155933,89.5824292 L389.198608,89.7546555 L389.349044,89.8330737 L389.514055,89.7921468 L389.596108,89.6354206 Z M163.193071,98.7919179 L163.271102,99.0322655 L163.412277,99.0153307 L163.430117,98.7629019 L163.335124,98.7561819 L163.309089,98.7542137 L163.193071,98.7919179 Z M164.057255,103.052201 L163.929889,103.038297 L163.807335,103.075677 L164.057255,103.052201 Z M163.899454,104.050076 L163.972574,104.290051 L164.121697,104.276043 L164.148593,104.026516 L164.050722,104.015956 L164.021707,104.012788 L163.899454,104.050076 Z M164.800247,108.311794 L164.668145,108.292708 L164.539782,108.329301 L164.800247,108.311794 Z M289.391934,73.735661 L289.204067,73.7892162 L289.130274,73.9234523 L289.302987,74.0184923 L289.355667,74.0472603 L289.602503,73.9768939 L289.559929,73.8274035 L289.391934,73.735661 Z M96.1967891,120.734328 L96.1049709,120.761907 L96.055591,121.001329 L96.1764905,121.026289 L96.2097786,121.03339 L96.3614567,120.987831 L96.2914476,120.754519 L96.1967891,120.734328 Z M98.8976976,133.821032 L98.8635559,134.077223 L98.9499127,134.088743 L98.9763859,134.092182 L99.0868096,134.066648 L99.0285777,133.81461 L98.8976976,133.821032 Z M101.692659,146.869812 L101.677749,147.148274 L101.731482,147.151154 L101.746177,147.151947 L101.81382,147.140673 L101.76802,146.865614 L101.692659,146.869812 Z" id="pattern-copy-2" fill="#CFD7DF"></path>
                </g>
            </g>
        </g>
    </g>
</svg>