<?xml version="1.0" encoding="UTF-8"?>
<svg width="17px" height="17px" viewBox="0 0 17 17" version="1.1" xmlns="http://www.w3.org/2000/svg" xmlns:xlink="http://www.w3.org/1999/xlink">
    <!-- Generator: Sketch 57.1 (83088) - https://sketch.com -->
    <title>icon-external</title>
    <desc>Created with Sketch.</desc>
    <g id="icon-external" stroke="none" stroke-width="1" fill="none" fill-rule="evenodd">
        <g transform="translate(1.000000, 3.000000)" fill="#FFFFFF" fill-rule="nonzero" id="Shape">
            <path d="M1.62494901,3.25030592 L1.62494901,11.375051 L9.74969408,11.375051 L9.74969408,8.93762747 C9.74969408,8.48891023 10.1134513,8.12515296 10.5621686,8.12515296 C11.0108858,8.12515296 11.3746431,8.48891023 11.3746431,8.93762747 L11.3746431,12.1875255 C11.3746431,12.6362427 11.0108858,13 10.5621686,13 L0.812474506,13 C0.363757227,13 0,12.6362427 0,12.1875255 L0,2.43783142 C0,1.98911414 0.363757227,1.62535691 0.812474506,1.62535691 L4.06237253,1.62535691 C4.51108981,1.62535691 4.87484704,1.98911414 4.87484704,2.43783142 C4.87484704,2.8865487 4.51108981,3.25030592 4.06237253,3.25030592 L1.62494901,3.25030592 Z M6.26174102,7.88709793 C6.05774941,8.09830604 5.75566861,8.18301138 5.47160362,8.10865745 C5.18753861,8.03430344 4.96569654,7.81246142 4.89134258,7.52839637 C4.81698862,7.24433139 4.90169397,6.94225059 5.11290207,6.73825898 L10.2314915,1.62129454 L7.32608262,1.62129454 C7.03041993,1.6306571 6.75311991,1.47826786 6.60251955,1.22366302 C6.45191919,0.969058189 6.45191919,0.65264425 6.60251955,0.398039414 C6.75311991,0.143434579 7.03041993,-0.00895465804 7.32608262,0.000407899246 L12.189555,0.000407899246 C12.4046637,0 12.611075,0.085289979 12.7631038,0.237471296 C12.9151326,0.389652614 13.0002411,0.596149347 12.9995921,0.811257457 L12.9995921,5.67472985 C13.0089547,5.97039255 12.8565654,6.24769257 12.6019606,6.39829292 C12.3473558,6.54889328 12.0309418,6.54889328 11.776337,6.39829292 C11.5217322,6.24769257 11.3693429,5.97039255 11.3787055,5.67472985 L11.3787055,2.76769607 L6.26174102,7.88709793 Z"></path>
        </g>
    </g>
</svg>