<?xml version="1.0" encoding="UTF-8"?>
<svg width="15px" height="15px" viewBox="0 0 15 15" version="1.1" xmlns="http://www.w3.org/2000/svg" xmlns:xlink="http://www.w3.org/1999/xlink">
    <!-- Generator: Sketch 57.1 (83088) - https://sketch.com -->
    <title>Path</title>
    <desc>Created with Sketch.</desc>
    <g id="Samples-catalog" stroke="none" stroke-width="1" fill="none" fill-rule="evenodd">
        <g id="hosted-demos-v0-copy" transform="translate(-658.000000, -62.000000)" fill="#FFFFFF">
            <g id="Group-8" transform="translate(534.000000, 59.000000)">
                <g id="Group-3" transform="translate(124.000000, 0.000000)">
                    <g id="logo-github" transform="translate(0.000000, 3.000000)">
                        <path d="M7.17035739,0.2 C3.22666083,0.2 0,3.42666083 0,7.37035739 C0,10.5073888 2.06147775,13.1962728 4.92962071,14.1821969 C5.28813858,14.2718264 5.37776804,14.002938 5.37776804,13.823679 C5.37776804,13.6444201 5.37776804,13.1962728 5.37776804,12.5688665 C3.40591976,13.0170138 2.95777242,11.6725718 2.95777242,11.6725718 C2.59925455,10.8659066 2.15110722,10.5970182 2.15110722,10.5970182 C1.52370095,10.1488709 2.24073669,10.1488709 2.24073669,10.1488709 C2.95777242,10.2385003 3.31629029,10.8659066 3.31629029,10.8659066 C3.94369657,12.0310897 5.01925017,11.6725718 5.37776804,11.4933129 C5.46739751,11.0451656 5.64665645,10.6866477 5.82591538,10.5073888 C4.21258497,10.3281298 2.59925455,9.70072355 2.59925455,6.92221006 C2.59925455,6.11554485 2.86814296,5.48813858 3.31629029,5.03999124 C3.22666083,4.86073231 2.95777242,4.14369657 3.40591976,3.15777242 C3.40591976,3.15777242 4.03332603,2.97851349 5.37776804,3.87480816 C5.91554485,3.69554923 6.54295112,3.60591976 7.17035739,3.60591976 C7.79776366,3.60591976 8.42516994,3.69554923 8.96294674,3.87480816 C10.3073888,2.97851349 10.934795,3.15777242 10.934795,3.15777242 C11.2933129,4.14369657 11.114054,4.86073231 11.0244245,5.03999124 C11.4725718,5.57776804 11.7414602,6.20517432 11.7414602,6.92221006 C11.7414602,9.70072355 10.0385003,10.2385003 8.42516994,10.4177593 C8.69405834,10.7762772 8.96294674,11.2244245 8.96294674,11.8518308 C8.96294674,12.8377549 8.96294674,13.5547906 8.96294674,13.823679 C8.96294674,14.002938 9.05257621,14.2718264 9.50072355,14.1821969 C12.3688665,13.1962728 14.4303443,10.5073888 14.4303443,7.37035739 C14.3407148,3.42666083 11.114054,0.2 7.17035739,0.2 Z" id="Path"></path>
                    </g>
                </g>
            </g>
        </g>
    </g>
</svg>