<?xml version="1.0" encoding="UTF-8"?>
<svg width="12px" height="12px" viewBox="0 0 12 12" version="1.1" xmlns="http://www.w3.org/2000/svg" xmlns:xlink="http://www.w3.org/1999/xlink">
    <!-- Generator: Sketch 57.1 (83088) - https://sketch.com -->
    <title>icon-down</title>
    <desc>Created with Sketch.</desc>
    <defs>
        <path d="M6.92500009,9.43737653 L10.368485,5.99389159 C10.6616493,5.70072729 11.1369626,5.70072729 11.4301269,5.99389159 C11.7232912,6.28705589 11.7232912,6.76236913 11.4301269,7.05553343 L6.70533004,11.7803303 C6.41243682,12.0732235 5.93756309,12.0732235 5.64466987,11.7803303 L0.919873034,7.05553343 C0.626708734,6.76236913 0.626708734,6.28705589 0.919873034,5.99389159 C1.21303733,5.70072729 1.68835058,5.70072729 1.98151488,5.99389159 L5.42500009,9.4373768 L5.42500009,0.750000179 C5.42500009,0.335786616 5.76078652,1.78813934e-07 6.17500009,1.78813934e-07 C6.58921365,1.78813934e-07 6.92500009,0.335786616 6.92500009,0.750000179 L6.92500009,9.43737653 Z" id="path-1"></path>
    </defs>
    <g id="Samples-catalog" stroke="none" stroke-width="1" fill="none" fill-rule="evenodd">
        <g id="hosted-demos-v0-copy" transform="translate(-385.000000, -92.000000)">
            <g id="icon-down" transform="translate(385.000000, 92.000000)">
                <mask id="mask-2" fill="white">
                    <use xlink:href="#path-1"></use>
                </mask>
                <use id="Mask" fill="#FFFFFF" xlink:href="#path-1"></use>
            </g>
        </g>
    </g>
</svg>