<?xml version="1.0" encoding="UTF-8"?>
<svg width="448px" height="448px" viewBox="0 0 448 448" version="1.1" xmlns="http://www.w3.org/2000/svg" xmlns:xlink="http://www.w3.org/1999/xlink">
    <title>devto</title>
    <g id="devto" stroke="none" stroke-width="1" fill="none" fill-rule="evenodd">
        <g transform="translate(-1.000000, 0.000000)" fill="#6772E5" fill-rule="nonzero" id="Shape">
            <path d="M109.47,171.94 L92.03,171.94 L92.03,276.41 L109.48,276.41 C113.36,276.41 117.25,274.96 121.13,272.06 C125.01,269.16 126.95,264.81 126.95,259 L126.95,189.35 C126.94,183.55 124.99,179.19 121.12,176.29 C117.24,173.39 113.35,171.94 109.47,171.94 Z M0.9,0 C1.00666667,13.06 1.04,27.66 1,43.8 L1,448 C14.1333333,448 28.7666667,448 44.9,448 L449,448 C448.96,434.94 448.96,420.34 449,404.2 L449,43.8 C448.96,27.66 448.96,13.06 449,0 L0.9,0 Z M155.2,259.19 C155.2,278 143.59,306.5 106.84,306.440095 L60.44,306.440095 L60.44,140.98 L107.82,140.98 C143.26,140.98 155.18,169.44 155.19,188.26 L155.2,259.19 Z M255.88,170.53 L202.6,170.53 L202.6,208.95 L235.17,208.95 L235.17,238.52 L202.6,238.52 L202.6,276.93 L255.89,276.93 L255.89,306.5 L193.71,306.5 C182.55,306.79 173.27,297.97 172.99,286.81 L172.99,161.7 C172.72,150.55 181.55,141.29 192.7,141.01 L255.89,141.01 L255.88,170.53 Z M312.08,285.82 L273.55,141.02 L306.12,141.02 L335.83,254.74 L365.4,141.02 L397.98,141.02 L359.52,285.82 C346.32,316.57 322.67,310.45 312.08,285.82 Z"></path>
        </g>
    </g>
</svg>