<?xml version="1.0" encoding="utf-8"?>
<!-- Generator: Adobe Illustrator 20.1.0, SVG Export Plug-In . SVG Version: 6.00 Build 0)  -->
<svg
    className="SVGInline-svg SVG-svg LangIcon-svg"
    width="24px"
    height="24px"
    viewBox="4 4 28 28"
    xmlns="http://www.w3.org/2000/svg"
>
    <path
    d="M23.476 5.076c2.78.481 3.569 2.382 3.51 4.373L27 9.42l-1.251 16.398-16.266 1.114h.014c-1.35-.057-4.36-.18-4.497-4.388l1.508-2.75 2.584 6.037.461 1.075 2.571-8.382-.027.006.014-.028 8.484 2.71-1.28-4.978-.907-3.575 8.085-.522-.564-.467-5.804-4.732 3.354-1.871-.003.01zM9.703 9.65c3.264-3.238 7.477-5.152 9.095-3.52 1.615 1.63-.097 5.597-3.367 8.833-3.266 3.238-7.428 5.256-9.042 3.628-1.62-1.63.041-5.7 3.31-8.938l.004-.003z"
    fill="#D91505"
    ></path>
</svg>
