<?xml version="1.0" encoding="UTF-8"?>
<svg width="456px" height="456px" viewBox="0 0 456 456" version="1.1" xmlns="http://www.w3.org/2000/svg" xmlns:xlink="http://www.w3.org/1999/xlink">
    <title>twitter</title>
    <g id="twitter" stroke="none" stroke-width="1" fill="none" fill-rule="evenodd">
        <g fill-rule="nonzero">
            <rect id="Rectangle" fill="#6772E5" x="0" y="0" width="455.731" height="455.731"></rect>
            <path d="M60.377,337.822 C90.707,357.058 126.685,368.19 165.252,368.19 C273.601,368.19 361.432,280.349 361.432,172.01 C361.432,169.305 361.375,166.62 361.271,163.943 C365.19,160.859 389.428,141.432 395.369,128.943 C395.369,128.943 375.686,137.123 356.422,139.05 C356.384,139.05 356.337,139.059 356.299,139.059 C356.299,139.059 356.337,139.04 356.403,138.993 C358.178,137.807 382.994,120.914 386.354,100.786 C386.354,100.786 372.432,108.217 352.939,114.718 C349.712,115.79 346.334,116.844 342.851,117.821 C330.286,104.411 312.426,96.041 292.601,96.041 C254.574,96.041 223.76,126.846 223.76,164.844 C223.76,170.206 224.377,175.425 225.544,180.436 C220.23,180.218 139.307,175.681 84.255,109.013 C84.255,109.013 51.353,153.93 103.862,200.118 C103.862,200.118 87.9,199.482 74.129,191.254 C74.129,191.254 69.071,245.67 128.536,259.583 C128.536,259.583 116.835,264.015 98.168,260.855 C98.168,260.855 108.607,304.823 161.439,308.932 C161.439,308.932 119.662,346.672 60.358,337.817 L60.377,337.822 Z" id="Path" fill="#FFFFFF"></path>
        </g>
    </g>
</svg>