<svg height="154" viewBox="0 0 240 154" width="240" xmlns="http://www.w3.org/2000/svg"><g fill="none" fill-rule="evenodd"><rect fill="#fff" height="154" opacity=".8" rx="4" width="240"/><g transform="translate(62 60)"><path d="m3.58943928.35c-1.08510563 0-1.53103464.08611287-1.99196366.33262041-.39530234.21141-.70344521.51955287-.91485521.91485521-.24650754.46092902-.33262041.90685803-.33262041 1.99196366v12.42112142c0 1.0851056.08611287 1.5310347.33262041 1.9919637.21141.3953023.51955287.7034452.91485521.9148552.46092902.2465075.90685803.3326204 1.99196366.3326204h109.02112172c1.085105 0 1.531034-.0861129 1.991963-.3326204.395303-.21141.703446-.5195529.914856-.9148552.246507-.460929.33262-.9068581.33262-1.9919637v-12.42112142c0-1.08510563-.086113-1.53103464-.33262-1.99196366-.21141-.39530234-.519553-.70344521-.914856-.91485521-.460929-.24650754-.906858-.33262041-1.991963-.33262041z" fill="#fff" opacity=".8" stroke="#a450b5" stroke-opacity=".334544" stroke-width=".7"/><text fill="#1a1f36" font-family="-apple-system, BlinkMacSystemFont, 'Segoe UI', Roboto, sans-serif" font-size="8.4" font-weight="500" opacity=".67"><tspan x="5.6" y="13.6">09 / 10 / 1992</tspan></text></g><g transform="translate(62 84)"><path d="m3.58943928.35c-1.08510563 0-1.53103464.08611287-1.99196366.33262041-.39530234.21141-.70344521.51955287-.91485521.91485521-.24650754.46092902-.33262041.90685803-.33262041 1.99196366v12.42112142c0 1.0851056.08611287 1.5310347.33262041 1.9919637.21141.3953023.51955287.7034452.91485521.9148552.46092902.2465075.90685803.3326204 1.99196366.3326204h109.02112172c1.085105 0 1.531034-.0861129 1.991963-.3326204.395303-.21141.703446-.5195529.914856-.9148552.246507-.460929.33262-.9068581.33262-1.9919637v-12.42112142c0-1.08510563-.086113-1.53103464-.33262-1.99196366-.21141-.39530234-.519553-.70344521-.914856-.91485521-.460929-.24650754-.906858-.33262041-1.991963-.33262041z" fill="#fff" opacity=".8" stroke="#a450b5" stroke-opacity=".334544" stroke-width=".7"/><text fill="#1a1f36" font-family="-apple-system, BlinkMacSystemFont, 'Segoe UI', Roboto, sans-serif" font-size="8.4" font-weight="500" opacity=".67"><tspan x="5.6" y="13.6">343-3434</tspan></text></g><g transform="translate(62 36)"><path d="m3.58943928.35c-1.08510563 0-1.53103464.08611287-1.99196366.33262041-.39530234.21141-.70344521.51955287-.91485521.91485521-.24650754.46092902-.33262041.90685803-.33262041 1.99196366v12.42112142c0 1.0851056.08611287 1.5310347.33262041 1.9919637.21141.3953023.51955287.7034452.91485521.9148552.46092902.2465075.90685803.3326204 1.99196366.3326204h109.02112172c1.085105 0 1.531034-.0861129 1.991963-.3326204.395303-.21141.703446-.5195529.914856-.9148552.246507-.460929.33262-.9068581.33262-1.9919637v-12.42112142c0-1.08510563-.086113-1.53103464-.33262-1.99196366-.21141-.39530234-.519553-.70344521-.914856-.91485521-.460929-.24650754-.906858-.33262041-1.991963-.33262041z" fill="#fff" opacity=".8" stroke="#a450b5" stroke-opacity=".334544" stroke-width=".7"/><text fill="#1a1f36" font-family="-apple-system, BlinkMacSystemFont, 'Segoe UI', Roboto, sans-serif" font-size="8.4" font-weight="500" opacity=".67"><tspan x="5.6" y="13.6">Ryo Lu</tspan></text></g><path d="m109 17h23c1.104569 0 2 .8954305 2 2s-.895431 2-2 2h-23c-1.104569 0-2-.8954305-2-2s.895431-2 2-2z" fill="#e28ddc"/><g transform="translate(62 114)"><path d="m3.58943928 0h109.02112172c1.248126 0 1.700727.12995586 2.157023.37398579s.8144.60213393 1.05843 1.05843023c.24403.45629629.373986.90889702.373986 2.15702326v12.42112142c0 1.2481263-.129956 1.700727-.373986 2.1570233s-.602134.8144003-1.05843 1.0584302-.908897.3739858-2.157023.3739858h-109.02112172c-1.24812624 0-1.70072697-.1299559-2.15702326-.3739858-.4562963-.2440299-.8144003-.6021339-1.05843023-1.0584302s-.37398579-.908897-.37398579-2.1570233v-12.42112142c0-1.24812624.12995586-1.70072697.37398579-2.15702326.24402993-.4562963.60213393-.8144003 1.05843023-1.05843023.45629629-.24402993.90889702-.37398579 2.15702326-.37398579z" fill="#a450b5"/><text style="opacity:.7;font-family:-apple-system, BlinkMacSystemFont, 'Segoe UI', Roboto, sans-serif;font-size:10;font-weight:500;letter-spacing:.12;fill:#f7fafc"><tspan x="20.487637" y="13">Set up payouts</tspan></text></g></g></svg>