<svg height="154" viewBox="0 0 204 154" width="204" xmlns="http://www.w3.org/2000/svg"><g fill="none" fill-rule="evenodd" transform="translate(1)"><rect fill="#fff" height="154" opacity=".8" rx="4" width="202"/><path d="m0 55.5h202" opacity=".3" stroke="#a3acb9" stroke-linecap="square"/><text style="opacity:.836844;font-family:-apple-system, BlinkMacSystemFont, 'Segoe UI', Roboto, sans-serif;font-size:18;font-weight:500;letter-spacing:-.45;fill:#697386"><tspan x="67" y="40">$29.90</tspan></text><path d="m87 9h23c1.104569 0 2 .8954305 2 2s-.895431 2-2 2h-23c-1.1045695 0-2-.8954305-2-2s.8954305-2 2-2z" fill="#c1c9d2"/><path d="m23.1277704 110h155.7444596c1.783037 0 2.42961.185651 3.081461.534265.651852.348615 1.163429.860192 1.512044 1.512044.348614.651851.534265 1.298424.534265 3.081461v17.74446c0 1.783037-.185651 2.42961-.534265 3.081461-.348615.651852-.860192 1.163429-1.512044 1.512044-.651851.348614-1.298424.534265-3.081461.534265h-155.7444596c-1.7830375 0-2.42961-.185651-3.0814618-.534265-.6518519-.348615-1.163429-.860192-1.5120432-1.512044-.3486142-.651851-.5342654-1.298424-.5342654-3.081461v-17.74446c0-1.783037.1856512-2.42961.5342654-3.081461.3486142-.651852.8601913-1.163429 1.5120432-1.512044.6518518-.348614 1.2984243-.534265 3.0814618-.534265z" fill="#8792a2"/><path d="m23.1277704 70.5c-1.5501509 0-2.1871923.1230184-2.8456624.475172-.5647176.3020143-1.0049217.7422184-1.306936 1.306936-.3521536.6584701-.475172 1.2955115-.475172 2.8456624v17.7444592c0 1.5501509.1230184 2.1871923.475172 2.8456624.3020143.5647176.7422184 1.0049217 1.306936 1.306936.6584701.3521536 1.2955115.475172 2.8456624.475172h155.7444596c1.55015 0 2.187192-.1230184 2.845662-.475172.564718-.3020143 1.004922-.7422184 1.306936-1.306936.352154-.6584701.475172-1.2955115.475172-2.8456624v-17.7444592c0-1.5501509-.123018-2.1871923-.475172-2.8456624-.302014-.5647176-.742218-1.0049217-1.306936-1.306936-.65847-.3521536-1.295512-.475172-2.845662-.475172z" fill="#fff" opacity=".8" stroke="#c1c9d2" stroke-opacity=".683621"/><g fill-rule="nonzero" opacity=".5" transform="translate(154 76)"><rect height="15.5" rx="2" stroke="#697386" stroke-width=".5" width="23.5" x=".25" y=".25"/><path d="m3.28773262 5.91443732c-.52314173-.28693137-1.12019372-.51769955-1.78773262-.6778442l.0280005-.12471102h2.73697872c.37098332.01300346.67201191.12462375.76996714.51882925l.59482061 2.83587917.18221641.85413565 1.66598301-4.20884407h1.79882257l-2.67390785 6.1656463h-1.79891559zm7.31224258 5.36963648h-1.70114643l1.06401886-6.1721917h1.70105337zm6.1668069-6.02129922-.2313529 1.3328108-.1538632-.06554092c-.3078194-.12479829-.7141522-.2495093-1.2671852-.2363313-.6716398 0-.9728545.26905813-.9798314.53174543 0 .28895604.3643786.47938251.9593659.76179318.9801104.43993579 1.4347231.97831385 1.4279323 1.68093694-.0137677 1.28044789-1.1758348 2.10786929-2.9607967 2.10786929-.7631763-.0066327-1.4982591-.1579615-1.8972429-.3284901l.2380507-1.38552277.224004.09861682c.5530331.23004776.9169465.32831555 1.5961213.32831555.4897761 0 1.0149017-.19060107 1.0215995-.60409358 0-.26923267-.2237249-.46637906-.8818761-.76842582-.6439184-.29558867-1.5048639-.78797464-1.4909101-1.67447884.0072559-1.20155443 1.1902536-2.04197926 2.8701904-2.04197926.6580581 0 1.1902536.13788902 1.5257944.26277458zm2.2609703 3.83471102h1.4139786c-.0699548-.30859213-.3921-1.78601186-.3921-1.78601186l-.1188858-.5318327c-.0840015.22978594-.2308878.60409353-.2238179.59091553 0 0-.5390794 1.3723448-.6791749 1.72692903zm2.0998512-3.9856035 1.3723964 6.1721044h-1.5750977s-.1541422-.7091684-.2029803-.9258637h-2.1841317c-.0631639.1640705-.3570296.9258637-.3570296.9258637h-1.7849619l2.5268355-5.65999506c.1750729-.40057632.4833574-.51210934.889132-.51210934z" fill="#3c4257"/></g><g font-family="-apple-system, BlinkMacSystemFont, 'Segoe UI', Roboto, sans-serif" font-weight="500"><text fill="#1a1f36" font-size="12" opacity=".67"><tspan x="26" y="88">4242</tspan></text><text fill="#1a1f36" font-size="12" opacity=".67"><tspan x="66" y="88">11/24</tspan></text><text fill="#1a1f36" font-size="12" opacity=".67"><tspan x="106" y="88">934</tspan></text><text fill="#f7fafc" font-size="14" letter-spacing="-.28" opacity=".7"><tspan x="63" y="129">Pay $29.90</tspan></text></g></g></svg>