<svg height="102" viewBox="0 0 202 102" width="202" xmlns="http://www.w3.org/2000/svg" xmlns:xlink="http://www.w3.org/1999/xlink"><defs><path id="a" d="m3.97308155 9.90981266-3.75341164-3.71885958c-.29289321-.2953416-.29289321-.77418496 0-1.06952657.29289322-.29534161.76776696-.29534161 1.06066018 0l3.22017845 3.16867283 6.21614526-6.19359313c.2928932-.29534161.7677669-.29534161 1.0606602 0 .2928932.2953416.2928932.77418496 0 1.06952657l-6.75275756 6.74031331c-.29087324.29018411-.75872609.29172661-1.05147489.00346657z"/><mask id="b" fill="#fff"><use fill="#fff" fill-rule="evenodd" xlink:href="#a"/></mask></defs><g fill="none" fill-rule="evenodd"><rect fill="#fff" height="62" opacity=".8" rx="4" width="202"/><rect fill="#7a5a00" height="28" rx="4" width="202" y="74"/><text style="opacity:.833729;font-family:-apple-system, BlinkMacSystemFont, 'Segoe UI', Roboto, sans-serif;font-size:14;font-weight:500;letter-spacing:-.28;fill:#f7fafc"><tspan x="35" y="93">Pay with saved card</tspan></text><g fill-rule="evenodd" transform="translate(10 10)"><use fill="#000" xlink:href="#a"/><g fill="#d97917" mask="url(#b)"><path d="m0 0h12v12h-12z"/></g></g><g transform="translate(32 10)"><text fill="#1a1f36" font-family="-apple-system, BlinkMacSystemFont, 'Segoe UI', Roboto, sans-serif" font-size="12" font-weight="500" opacity=".797503"><tspan x="31" y="12">···· 4242</tspan></text><g fill-rule="nonzero" opacity=".8"><rect height="15.5" rx="2" stroke="#d97917" stroke-width=".5" width="23.5" x=".25" y=".25"/><path d="m3.28773262 5.91443732c-.52314173-.28693137-1.12019372-.51769955-1.78773262-.6778442l.0280005-.12471102h2.73697872c.37098332.01300346.67201191.12462375.76996714.51882925l.59482061 2.83587917.18221641.85413565 1.66598301-4.20884407h1.79882257l-2.67390785 6.1656463h-1.79891559zm7.31224258 5.36963648h-1.70114643l1.06401886-6.1721917h1.70105337zm6.1668069-6.02129922-.2313529 1.3328108-.1538632-.06554092c-.3078194-.12479829-.7141522-.2495093-1.2671852-.2363313-.6716398 0-.9728545.26905813-.9798314.53174543 0 .28895604.3643786.47938251.9593659.76179318.9801104.43993579 1.4347231.97831385 1.4279323 1.68093694-.0137677 1.28044789-1.1758348 2.10786929-2.9607967 2.10786929-.7631763-.0066327-1.4982591-.1579615-1.8972429-.3284901l.2380507-1.38552277.224004.09861682c.5530331.23004776.9169465.32831555 1.5961213.32831555.4897761 0 1.0149017-.19060107 1.0215995-.60409358 0-.26923267-.2237249-.46637906-.8818761-.76842582-.6439184-.29558867-1.5048639-.78797464-1.4909101-1.67447884.0072559-1.20155443 1.1902536-2.04197926 2.8701904-2.04197926.6580581 0 1.1902536.13788902 1.5257944.26277458zm2.2609703 3.83471102h1.4139786c-.0699548-.30859213-.3921-1.78601186-.3921-1.78601186l-.1188858-.5318327c-.0840015.22978594-.2308878.60409353-.2238179.59091553 0 0-.5390794 1.3723448-.6791749 1.72692903zm2.0998512-3.9856035 1.3723964 6.1721044h-1.5750977s-.1541422-.7091684-.2029803-.9258637h-2.1841317c-.0631639.1640705-.3570296.9258637-.3570296.9258637h-1.7849619l2.5268355-5.65999506c.1750729-.40057632.4833574-.51210934.889132-.51210934z" fill="#d97917"/></g></g><g transform="translate(32 36)"><text fill="#1a1f36" font-family="-apple-system, BlinkMacSystemFont, 'Segoe UI', Roboto, sans-serif" font-size="12" font-weight="500" opacity=".797503"><tspan x="31" y="13">···· 1001</tspan></text><g opacity=".8"><rect fill="#d97917" height="16" rx="2" width="24"/><path d="m13.7640663 13.3938564v-5.70139231l10.1475359.00910497v1.57489503l-1.1728619 1.25339231 1.1728619 1.2648839v1.6083094h-1.8726188l-.9951823-1.0981657-.9881105 1.1023204z" fill="#fffffe"/><path d="m14.4418122 12.7687956v-4.448884h3.7722872v1.02488398h-2.550895v.69569062h2.4900774v1.0078232h-2.4900774v.6833149h2.550895v1.0371713z" fill="#d97917"/><path d="m18.1952707 12.7687956 2.087337-2.2270055-2.0874254-2.2217901h1.6156464l1.2754917 1.41003315 1.2791161-1.41003315h1.5461657v.03500552l-2.0428729 2.18678458 2.0428729 2.1638895v.063116h-1.5617237l-1.2981216-1.4241768-1.2847735 1.4241768z" fill="#d97917"/><path d="m14.2373481 2.6319558h2.4460552l.8591381 1.95085083v-1.95085083h3.0198453l.5207514 1.46156906.5225194-1.46156906h2.3059447v5.70139227h-12.1865193z" fill="#fffffe"/><g fill="#d97917"><path d="m14.7004641 3.25135912-1.9740111 4.44517127h1.3539006l.3724199-.89016575h2.0179447l.3721547.89016575h1.3875801l-1.96579-4.44517127zm.1696353 2.55743646.592-1.41507182.5915581 1.41507182z"/><path d="m18.2119779 7.69573481v-4.44508288l1.903116.00654144.9792707 2.73272928.9856354-2.73927072h1.8316022v4.44508288l-1.1786077.01043094v-3.05334807l-1.1125746 3.04291713h-1.0758011l-1.1356464-3.05334807v3.05334807z"/></g></g></g></g></svg>