<svg height="123" viewBox="0 0 204 123" width="204" xmlns="http://www.w3.org/2000/svg"><g fill="none" fill-rule="evenodd" transform="translate(1)"><rect fill="#fff" height="123" opacity=".8" rx="4" width="202"/><path d="m0 35.5h202" opacity=".3" stroke="#7dabf8" stroke-linecap="square"/><text style="opacity:.5;font-family:-apple-system, BlinkMacSystemFont, 'Segoe UI', Roboto, sans-serif;font-size:13;font-weight:500;letter-spacing:-.078;fill:#697386"><tspan x="13" y="23">Cards</tspan></text><text fill="#09825d" font-family="-apple-system, BlinkMacSystemFont, 'Segoe UI', Roboto, sans-serif" font-size="13" font-weight="500" letter-spacing="-.078"><tspan x="67.062852" y="23">WeChat Pay</tspan></text><path d="m66 34h79c.552285 0 1 .4477153 1 1s-.447715 1-1 1h-79c-.5522847 0-1-.4477153-1-1s.4477153-1 1-1z" fill="#09825d"/><path d="m23.1277704 62h155.7444596c1.783037 0 2.42961.1856512 3.081461.5342654.651852.3486142 1.163429.8601913 1.512044 1.5120432.348614.6518518.534265 1.2984243.534265 3.0814618v17.7444592c0 1.7830375-.185651 2.42961-.534265 3.0814618-.348615.6518519-.860192 1.163429-1.512044 1.5120432-.651851.3486142-1.298424.5342654-3.081461.5342654h-155.7444596c-1.7830375 0-2.42961-.1856512-3.0814618-.5342654-.6518519-.3486142-1.163429-.8601913-1.5120432-1.5120432-.3486142-.6518518-.5342654-1.2984243-.5342654-3.0814618v-17.7444592c0-1.7830375.1856512-2.42961.5342654-3.0814618.3486142-.6518519.8601913-1.163429 1.5120432-1.5120432.6518518-.3486142 1.2984243-.5342654 3.0814618-.5342654z" fill="#04961c"/><text style="opacity:.7;font-family:-apple-system, BlinkMacSystemFont, 'Segoe UI', Roboto, sans-serif;font-size:14;font-weight:500;letter-spacing:-.154;fill:#fff"><tspan x="55" y="81">Open WeChat</tspan></text></g></svg>